<svg preserveAspectRatio="none" version="1.2" xmlns="http://www.w3.org/2000/svg" viewBox="0 0 284 138" width="284" height="138"><style>.a{fill:#232323}</style><path class="a" d="m280.7 133.9l-5.9-0.8-4.2 3.5-5.2 0.2-5.1-2.9-5.1 2.3-5.2-1.9-5.1 0.6-5.1 2.2-5.2 0.1-5.1-2.8-5.1-1.2-5.2-0.9-5.1 4.2-5.2-0.8-5.1-0.8-5.1-2.8-5.2 4.3-5.1-0.3-5.1-0.4-5.2-1.2-5.1-1.8h-5.2l-5.1 4.4-5.1-2.8-5.2 2.2-5.1-0.8-5.2-2.3h-5.1l-5.2-1.1-5.1 2.7-5.1-1-5.2 2.8-5.1 0.4-5.1-1.9-5.2-1.5-5.1 3.3-5.1-3.4-5.2 1.1-5.1 2.1-5.2-2.4-5.1 1.4-5.1 0.3-5.2-0.8-5.1-0.4-5.1-0.2-5.2-1.1-5.1-0.3-5.3 3.5-5.4-1.6-4.9 1.6-5-5.1-5 5.5-3.1-4.3-5.4-0.3-0.2-3.2-3.4-5.1 2.7-5-3.4-5.1 1.3-5-1.2-5.1 3.9-5.1-0.8-5-1.9-5.1-0.5-5-0.9-5.1 2.5-5.1 0.7-5 0.5-5.1-3.9-5.1 4.7-5-2.6-5.1-2-5 0.6-5.1-0.2-5.1 1.2-5-0.4-5.1-1.1-5.1-0.7-4.5 3-5.5-0.4-4.5 5.7 0.5 5.2-3.1 5.1 2.4 5.1 1.4 5.2-2.2 5.1-0.3 5.1 0.2 5.2 1.2 5.1-3.3 5.2 4.2 5.1-1.3 5.1 0.8 5.2 1.3 5.1-3.7 5.1 3.4 5.2 0.4 5.1-1.5 5.1 1.3 5.2 0.3 5.1-3.6 5.2 1.5 5.1-0.4 5.1-2.2 5.2 2.4 5.1 1.5 5.2-0.1 5.1-4.5 5.2 2.8 5.1-2.4 5.1 2.6 5.2 1.2 5.1-1.1 5.1 0.6 5.2 0.9 5.1-1.8 5.1-1.2 5.2 1 5.1 1.8 5.2 0.7 5.1-4 5.1 1.6 5.2 1.9h5.1l5.1-0.3 5.2-2.1 5.1 1.4 5.2 0.1 5.1-1.2 5.1 2.8 5.2-2.8 5.1 1.4 5.2 0.6 6.5-1.6 3.9 4.3-2 2.6 0.5 3.1-0.3 5 2.1 5.1-2 5 1.1 5.1 0.3 5.1-1.7 5 3.4 5.1-0.7 5-3.1 5.1 1.6 5.1 1.5 5.1-3.2 5 4.3 5.1-4.4 5-0.3 5.1 0.5 5 0.9 5.1-1.3 5.1 2.4 5-1.3 5.1 3.8 5.1-0.1 5-2.5 5.1z"/></svg>