<svg preserveAspectRatio="none" xmlns="http://www.w3.org/2000/svg" version="1.2" viewBox="0 0 680 161" width="680" height="161"><style>.a{fill:#000}</style><path fill-rule="evenodd" class="a" d="m674.2 85.4c0.1 3.5-0.5 6.5-0.8 5.2 0.8 7-0.1 7.2 1.4 8.1 0.7 4.5-0.3 9.3-0.9 4.2l0.9 13 0.2-7.8c1.3 2.1-0.3 12.4 1.1 14.9l-0.1-14.1 0.4 0.7c-0.5-3.2-0.3-9.4-0.1-11.6 0.2 0.3 0.5 0.1 0.6 2.6 0-17-2.2-4.6-2.6-18.7 0.1 0.9 0 2-0.1 3.5zm3-14.4l-1.5-6 0.4-9.9c-0.6-0.2-1-7.4-1.5-2.5 0.1 1 0.3 2.9 0.2 4.4-1.1-1.1-0.5-13.2-1.7-10.3 0.3 7.9 0.1 9.1 1 13.9-0.1 7.2-0.4 12.5-0.8 15.9 0.2 2.1 0.9 2.4 1 5.1 0-0.6 0-1.1 0-1.8l1.7-0.3c-0.4-2.3-0.2-4.4-0.2-7l2 11.7c1.6-3.8 0.6-15.2 1.3-19.8-1.5 5.7-0.7-4.5-1.9 6.6zm-2.9 10.6c0 0.1 0 0.2 0 0.3 0-0.1 0-0.2 0-0.3zm-628.4 71.6c-0.1 0.1-0.1 0.1 0 0.2l2.5-0.5q0 0 0 0-1.4 0.1-2.5 0.3zm-44.9-64.2l1 12.4c-0.5-1.6-0.3 4.4-0.9 1.8 0.1 0.9 0.3 5.3 0.5 4.1v-2.5c1.4 6.5 1.9 2.6 3 13.4 0.8-6.7 0-9.7-0.6-13.2-0.1-1.2-0.1-2.3-0.2-3.3l-1.9-10.3zm466.6 59.8l-0.2 0.1c0.2 0 0.2-0.1 0.2-0.1zm-0.7 0.6l0.5-0.5c-0.6 0.2-3.2 0.5-0.5 0.5zm168.1-141.2c0.6 0.1 1.3 0.1 1.8 0.2-0.4-0.1-1.1-0.2-1.8-0.2zm-508.3-0.6h3.3c-1.3 0-2.4 0-3.3 0zm74.4-5.6l4.9-0.4c-1.9 0-3.4 0.2-4.9 0.4zm394.4 6.1h-0.2c-0.3 0-0.5 0.1-0.8 0.1zm-245-2.2c0.8 0.2 1.6 0.3 2.7 0.4-0.1-0.2-1.1-0.3-2.7-0.4zm-150.2-3.9c0.1 0 0.2 0 0.3 0.1q0.3-0.1 0.6-0.1zm-106.4 0.5c-0.7 0.1-1.3 0.1-2.1 0.2 1 0 1.6-0.1 2.1-0.2zm4.7 4.8c-0.8 0.1-1.5 0.1-2.1 0.2zm-94.1 49.9l0.2 4.5c0-2.2-0.1-3.5-0.2-4.5zm82.3-51c-0.2 0.1-0.5 0.2-0.7 0.2 0.7 0 0.9-0.1 0.7-0.2zm577.2 12.9c-0.1-0.1-0.2-0.1-0.2-0.2l-0.3 0.1zm9.1 9.3c0.3 0.7 0.5 1.5 0.7 2.3 0.3 0.8 0.4 1.6 0.6 2.4-0.2-0.9-0.3-1.8-0.6-2.6-0.2-0.8-0.4-1.6-0.7-2.1zm-257.6-19.9c1.2 0.2 3.9 0.5 2.7 0.8 2.2-0.3 2.1-1.2-2.7-0.8zm264 34.9q-0.1-2.3-0.2-4.4-0.1-1.1-0.1-2.1c-0.1-1-0.2-2-0.3-3-1.2-7.8-5.4-14.2-10.9-18 4.1 3.5 7.3 8.6 8.7 14l0.2 1 0.2 1.1q0.2 1 0.3 2 0.1 1 0.1 2c0 0.3 0 0.7 0 0.9v0.7q0 2.8-0.2 5.3l-1.1-2.8q0.2-1.3 0.3-2.6 0-0.3 0-0.6c0.1-0.2 0.1-0.5 0.1-0.8q-0.1-0.8-0.1-1.6c0-1-0.2-2.1-0.3-3.1-0.2-0.9-0.5-1.9-0.7-2.9-1.1-3.4-2.9-6.6-5.6-9.8q0.5 0.7 1.2 1.6c0.6 0.8 1.1 1.9 1.8 3 0.3 0.5 0.5 1.1 0.8 1.7q0.2 0.5 0.4 1l0.3 0.9c1 2.5 1.3 5.2 1.5 7.2 0 1 0.1 1.8 0.1 2.4 0 0.3 0 0.5 0 0.6q0 0.2 0 0.2c-0.5 3.8-0.8 4.4-1 3.3 0-0.5-0.1-1.5-0.2-2.7q0-0.4 0-0.9c0-0.3-0.1-0.8-0.1-1.2-0.1-0.9-0.1-1.8-0.3-2.7 0.1 0.9 0.1 1.8 0.1 2.5 0 0.7 0 1.2-0.1 1.4 0.4 0.7 1.3 17.8 1.5 3.4 1.2 0.6 0.6 9.2 0.9 13 0.3-2.7 0.8 1.4 1.2 0.6-0.1-1.9-0.5-4.2-0.4-7.3 0.6-1.5 1 3.3 0.8 7 0.6-4.6 0.9 5.8 1.5-0.6q-0.2-5.2-0.4-9.7zm-10.5-25.7q0.5 0.5 0.9 1-0.1-0.2-0.3-0.3c-0.4-0.5-0.6-0.7-0.6-0.7zm-8.3 1.2c-0.2-0.1-0.1-0.1 0 0zm-637.6-13.3c-1.1 0.6-0.5 0.4 0.4 0-0.1 0-0.2-0.1-0.4 0zm384.5-2c-1.6 0-2.8 0-3.9 0.1q1.8 0 3.9-0.1zm71.9 10.9q-1.5 0-2.9 0-0.4 0.1-0.6 0.1c0.6 0.2 2.5 0 3.5-0.1zm-217.6 0.7c1.1-0.1 2-0.2 2.7-0.4-1.6 0.1-2.3 0.3-2.7 0.4zm-78.1-8.5q0 0 0.1 0 0 0 0 0-0.1 0-0.1 0zm485.6 15.5c-3.4-4.4-6.9-6.9-9.5-8.7-2.6-1.7-4.5-2.6-5.3-3.1q-1-0.3-1.5-0.5-0.4-0.2-0.5-0.3c0-0.1 0.4-0.2 1-0.3 1.2-0.2 3.1-0.1 2.8-0.5-2.3-0.6-4.1-0.7-5.5-0.7-1.4 0-2.7 0.2-3.4 0.4-1.6 0.3-3.2 0.7-6.7 0.8-1.8-0.2-1.2-0.4-0.4-0.5l-4.6 0.5c-0.3-0.3-12.1-0.5-5.1-1.3 1 0 3 0 4.5 0.1-9.7-0.8-26.4-1.6-25.9-2.8-5.3-0.3-3.8 0.3-12.2-0.1-3.9 0.9 0.3 1.7-8.9 2.3l7.3 0.4c1.4-0.1 2.7-0.3 4.3-0.5l-7.5 0.1c4.7-0.4 3.9-0.8 5.3-1.6 11.6-0.1 14.8 1.4 20.7 1.8-3.6 0.6-9.9 0.4-7.5 1.4-5.8-0.9-6.5 0.9-13.2 0.1l1.3-0.3c-5.5 0.8-6.2-0.2-10.7 0.5 0.3-0.2-0.3-0.3-0.9-0.4-9.8 0.4 3 0.6-6.9 1.6-8.7-0.2-2.8-1.7-5.2-2.2 14.7-1.4-0.3-1.7 15.6-2.8-0.1-1.4-6.3-1.6-14.8-1.4 5.5 0.6-3.5 2 3.8 3-12.6 0.7-11.6 3.3-25.8 2.1l0.4-0.2-5.8 1-8-0.6c4.9-1.4 11-0.7 15-1.6-9.8-1.4-13.2 1.5-24.4 1.3-9.4-1.6 11.4-0.9 11.4-2.3-2.3 0.4-8.4-0.3-7.7-0.7 10.6 0.5 6.4-0.9 18.2-0.1-5.7 0.4 0.9 0.4-0.2 1 1.7-0.5 12.7-0.7 20.4-0.4 1.8-1.1-6.7-0.9-11.6-1.3-9.3 1.1-18.9-0.9-26.1 0.4-10 0.1-0.7-1-1.3-1.1-9.1-0.5-4 0.8-6.8 1-13.6 0.8-15.1-1.2-24.8-1.2-8.1 1.3-27.8 0.9-41.5 0.8 1.7-0.5-0.2-0.9-1-1.3-8.2 1.9-5.2 1.1-15.5 2.3l8.7 0.7c-7 0.2-12.6 1.5-18.9 0.5 8.4 1.7-11.2 1.2-16.3 1.8-7.1-0.6-14.3 0.7-18.1-0.4l0.9-0.1-10.3-0.2 1.3-1.6c-7.1-0.7-15.8 0.6-13.4 1.1-7.4-0.5-3-0.7-4.1-1.4 4.2-0.5 13.2-2 15.8-0.6-0.6-0.2-2.2-0.2-2.5 0 19.3 0.8 6.3-2 15.9-2.4-5-0.2-8.8-1-14.1-0.5-2.5 0-12.7 0.7-17.8 1.3 7-0.8 10.6 0 16.2 0.5-4.7-0.1-5.5 0.8-9.5 0.3l1.3-0.3-5.1 0.6c-0.8-1-14-0.4-6.2-1.6-7 0.3-2.4 0.9-8.8 1.3l12.5 0.3-0.2 1.1c-4.5 0.7-5.6-0.1-10.7 0l0.5 1.2-8.9-1c1.1 0.8-5.8 0.5-7.7 0.6-4.9-0.5-1.7-2.3-10.1-1.2l0.6 0.1c-4.8 0.4-7.6 0.6-14.4 0.3 0.3-0.2 2.2-0.4 3.2-0.4-9.6-0.6-25 1.1-29.3-0.6 0.7-0.9 4.7-0.4 4.9-1.4 14.8 1.4 10.4-1.7 27.8-0.9 0.8 2.3 14.6-1.4 17.9 0.9-6.8-0.3-15.9 1.2-14.6 1.4 6.2-0.1 15-0.2 19.4 0.1-3.8-0.8-2.6-2.1 0.2-2.9-10.2 0.7-28.6-0.9-43-1.2l1.6 1.5c-12.4 1 1.5-1.4-8.2-1.4l-4.2 1-0.7-0.1-7.1 1.3c5.1-0.1 2.8-1.1 8.3-0.5 4.9 0.4-0.2 1-1.6 1.8-3.4-0.4-15.4-0.1-8-1.1l-13.1 1.5c0.1-0.6 3-0.8 4.3-1.1l-9.5 0.3 0.4-0.2c-7.6 0.6-18.3 0.6-24.1 1.6 13 1-6.2 1.2-5.1 2-4.7-0.2-6.1-2.6 3.8-3.6 2.7 0.8 9.5-0.3 14.5-0.3-6.5-0.6-8.5 0.1-13.5 0.2 3.5-0.6-6.8-0.8-6.6-1.4 0.6-0.4 2.7-1.6 9.2-1.1 9.7 0.1 1 1.3 3.9 1.1 2.6 1.3 13.5-0.3 19.4 0.1 0.6 0.2-1.3 0.3-2.3 0.4 5.1-0.1 15.7-0.1 16.5-1l-12.6 0.7c-2.8-0.3 3.9-0.9-0.1-1.4-2.9 0.2-6.3 0.3-10 0.1l0.7-0.4c-7.7-0.7-19.7-0.4-28.5-0.1-2 2.1-6.6 3.3-10.5 5.6-13.1 0-26.8-0.1-40.8-0.5 0.2 0.4 0 0.9-0.6 1.3-4-0.6-11.3-0.2-11.1-1.2-4.2 1-16.3 1.8-14 2.9-0.5 0-1.1 0-1.6 0-5.1-1.1-12.7-2-26.5-2.2-2.7-0.1-3 0.7-2.4 1.6-2.9-0.3-5.7-0.5-8.4-0.6 2.1-0.4 3.5-1 7.5-1.1l-21.3-0.3 1.6-0.5-8.4 0.7c4.7-0.3 12.1 0 10.3 1-9.6 0.8-15-0.3-23.1 1.1 0.1-2-2.7-2.2 0-3.3 0.6 0 0.8 0 1 0.1 3-1.1 9.5-2.2 14.5-2.4-17.7-0.7-13.2 0-28.7-0.5-1.4-1.1 14.3-1.1 10.7-1.9l14.6 0.6c-2.5 0-2.8 0.3-4 0.5 10.1-0.8 13.7 0.2 21.3-1.1 4.8 0.5-7.5 0.9-2.2 1-4.4 0.2-8.8 1.5-11 2.3 11.5 0.5 6.6-1.4 16.4-1.8l7.3 0.9c4.4-0.1-1.5-0.5-1.7-0.9 5.4-0.2 7.4 0.5 11.5 0.5-1.2-0.3-4-0.6-3.3-1 6.8 0.9 13.4 0.3 19.7 1.9-3.6-0.8 4.1-1.9 7-2.1l-12.9-1.6c-16.3 0.5-26.5-0.2-44.2 0.5l1-0.6c-27.8-1.9-23 2.9-46.9 3-0.6-1.5-11 0.2-10.1-1.3 7.2 0.1 5.8-0.4 3.7-1.1-2.1 0.2-3.8 0.6-6 0.9-1.1 0.1-2.3 0.2-3.8 0.3q-1.1 0-2.3 0-1 0-2.1 0c-0.8 0-1.6 0-2.4 0.1 1.2-0.3 1.4-0.5 1.1-0.7-0.2-0.1-0.8-0.2-1.2-0.3-0.3-0.1-0.4-0.2 0.4-0.4 0.4-0.2 1-0.2 2-0.4q0.7 0 1.7-0.1 0.6 0 1.5-0.1-0.5 0-1 0h-0.4-0.4q-0.4 0-0.9 0c-1.1 0.1-2.1 0.1-3.2 0.3-1 0.1-2.1 0.2-3 0.5q-1.5 0.3-2.9 0.7c-3.6 1.1-6.7 2.6-9.2 4.4-1.3 0.9-2.4 1.8-3.5 2.7-1 1-1.9 2-2.7 3-0.8 1-1.6 2-2.2 3.1-0.6 1-1.2 2.1-1.7 3.2-1.8 3.2-2.7 6-3.4 8.2q-0.5 1.7-0.8 3c-0.2 0.9-0.3 1.6-0.4 2.3-0.3 1.3-0.4 2.3-0.5 3-0.1 0.7-0.3 1.3-0.4 1.8 0 0.2-0.1 0.3-0.1 0.4q-0.1 0.1-0.1 0.2-0.1 0.3-0.2 0.6c-0.1 0.5-0.2 1-0.3 1.8-0.1 1.6-0.1 4.1 0 8.6l-0.5-2.6 0.2 11 0.7-3.7 0.9 13c0.8 8 1-3.2 1.6-2.2l-1.1-2.7c0.2-5.2-0.7-12.6 0.1-13.7 0.1 8.6 1 6.5 1.4 9.9l-0.4-8.2 0.8-2.6q0-3.1 0-5.8 0-1.3 0-2.6 0-0.7 0-1.3 0.1-1 0.1-1.9c0.2-4.9 1.4-9.1 2.7-12.7q-0.5 0.8-0.9 1.6-0.4 0.9-0.6 1.7-0.3 0.8-0.5 1.6-0.1 0.8-0.3 1.6-0.1 0.7-0.2 1.5-0.1 0.8-0.2 1.6-0.1 0.7-0.3 1.6c-0.1 0.5-0.1 1.1-0.3 1.6-0.1-0.7-0.2-1.7-0.1-2.8 0-1.1 0-2.3 0.3-3.6 0.4-2.7 1.4-5.7 3-8.8 3.2-6.2 9.3-12.2 16.9-15.4 0.2 0.1 1.6-0.3 2.6-0.5 1.1-0.2 1.8-0.3 0.8 0.1-0.3 0.2-3 1.1-4.4 1.7 0.7 0-1 1-1 1.3-0.1 0.2 0.3 0.1 1.5-0.4 1.1-0.4 3.2-1.1 6.7-1.8-1.2 0.5-2.7 1.1-4.2 2-1.5 0.8-2.9 1.9-4.2 2.8-2.4 2.1-3.9 4-3.7 4-0.7 0.6-1.4 1.3-2.2 2q-1 1.2-2.1 2.4c-1.3 1.8-2.5 3.6-3.5 5.6-1.9 3.9-2.9 8.1-3.2 11.1l-0.2-0.5c-0.1 0.8-0.1 1.8-0.2 2.8q0.1 1.1 0.1 2.3c0.1 1.6 0.1 3.3 0.2 4.8 0.1 3.2 0.1 5.8-0.4 6.2 0.3 2.9 0.6 10.8 1.1 2.7l0.6 13.3c-1.8-2.2-2.1 10.3-3.6-2.9 0.1 0.4 0.2 3.6 0.4 8.9-1.2-4.6-1.5 2.2-1.6 9.4l1 1.7c-0.6 6.2-1.5 9.9-1 18.2l3.6 19.4c0.1 1.6 0.2 4.7 0.8 7.3-0.1 0.4 0 1 0.1 1.6 0.2 0.7 0.3 1.4 0.5 2.2q0.4 1.1 0.8 2.3c0.3 0.7 0.6 1.4 0.9 2.1 0.6 1.3 1.2 2.3 1.4 2.9 0.1 0.5-0.1 0.5-1-0.4 0.2 0.7-0.4 0.1-1.3-1.2-0.4-0.7-0.8-1.6-1.3-2.7-0.4-1.1-0.9-2.3-1.2-3.7-0.1-0.8 0.3 0.5 0.2-0.4-0.5-0.7-0.9-1.1-1.1-0.6-0.2 0.6-0.3 2.2 0.8 5.6-1.4-3.4-1.7-5.4-2.1-7.1-0.1-0.9-0.3-1.7-0.4-2.6-0.2-0.9-0.3-1.9-0.4-3.2 0 0 0 0.5 0 1.2 0 0.7 0 1.6 0.1 2.5 0.1 0.9 0.3 1.8 0.4 2.5 0 0.5 0.1 0.9 0.2 1.1q-0.3-1-0.5-2-0.2-1.1-0.4-2.2-0.1-1.1-0.2-2.3-0.1-0.9-0.1-1.8c-0.2-2-0.4-4-0.7-5.7-0.5-3.5-1-6.1-1.4-6.1 1.2 2.2 0 6.6-0.2 10.4-0.3-2.9-1-9-1.1-4.3 0.1 0.4 0.3 1.5 0.4 2.8 0.2 1.3 0.3 2.8 0.4 3.9 0.3 1.9 0.5 3.3 0.6 3.2 0.1-0.1 0.1-0.5 0.2-1.4q0-0.6 0-1.6c0-0.4 0-0.6 0-0.8q0-0.4 0.1-0.8 0 0.8 0.1 1.7 0.1 1.3 0.3 2.6c0.1 0.9 0.3 1.8 0.5 2.7q0.2 1.4 0.7 2.8c1.1 3.6 2.7 7.2 4.5 10.3q-0.9-1.3-1.5-2.1-0.5-0.8-0.9-1.3c-0.4-0.6-0.6-0.7-0.7-0.6-0.2 0.2-0.2 1.1-1.1 0.1q0.8 1.3 1.4 2.2 0.7 0.9 1.2 1.5c0.8 0.9 1.3 1.4 1.8 1.7 0.9 0.6 1.3 0.6 1.8 1 3.1 4.3 6.6 7.4 10.2 9.8 3.6 2.3 7.3 3.9 11.3 4.8 1.1 0.2 2.1 0.4 3.1 0.5q0.8 0.1 1.6 0.2 0.7 0.1 1.3 0.1 1.9 0.2 3.9 0.3c2.8 0.1 5.8 0 9.5-0.2 1.9-0.1-8.9 0.4-7.5-0.4 10.7-1.4 13.9 1.5 23.1 0.9l-2.6-1.4c2.8-0.2 9.8-0.4 13.2-0.5 0.9 0.4 10.7 1.3 3.5 1.8 15.8 0.7 13.9-2.9 32.1-2.5-8.4-0.3-9.4-0.3-16-0.3 7.1-0.7 1.1-0.6 1.9-1.5 4.2 0.9 17.8 0.1 8.5 1.2 5.7 0.1 16.9 0.2 19.5-0.4l-4.9-0.4c8.1 0 16.1-0.8 19.4-1.8-10 0.1-9.7 1.8-22.5 1.7-13.9-1 3.3-1-5.8-2.3l-9.9 1 4.6 0.1c-1.5 1.3-15.3-0.1-14 1.5-10.1-1.2-13.1-0.5-24.1-1.7-2.7 0.6 1.4 0.6 4.5 0.7-5.6-0.1-5.9 1.5-13.2 0.6-3.7-0.2-1.2 1.1 5.4 1.1-5.6-0.1-11 0.2-17.2 0l6.3 1.1h-6.5l5.5 0.6c-3.1 0-6.4 0-9.6 0q-2.4 0-4.8-0.1-1.2 0-2.3 0h-0.8l-0.9-0.1q-1-0.1-2-0.1c-5-0.6-9.7-2.3-13.2-4.5-3.6-2.1-6.2-4.7-7.9-6.8 3.3 3 7.7 5.8 12.9 7.5 2.5 0.9 5.2 1.4 7.9 1.7q1.1 0.1 2.1 0.1h1 0.5 0.3q1.3 0 2.6-0.1c6.6-0.2 12.7-0.6 15.9-1.4-2.5-0.5-8.7 1.2-11.9-0.3l-3.3 1q-1.5 0.1-3.6 0.2-1.7 0-3.4-0.1-1.7-0.2-3.3-0.4c-4.4-0.9-7.7-2.9-8-3.5 1.8 0.8 3.6 1.4 5.2 1.8 1.6 0.4 3.1 0.7 4.5 0.7 0.7 0.1 1.4 0.2 2 0.2q0.9-0.1 1.8-0.1 0.4 0 0.9 0h0.4l0.2-0.1q0.6-0.1 1.1-0.1c2.6-0.4 4.6-0.9 7.3-1.3 0-0.2 1-0.3 2.5-0.3q0.1 0 0.2-0.1l-0.1 0.1c3.1-0.1 8.2 0 11.1-0.3 3.7 0.3 1.1 0.8 0.7 1 12.6 1.2 21.4-1.9 34.7-1.1 0.1 0.9 10.4 1.1 7.2 1.5 7.8 0.2 12.1-0.8 17.2-1.4 1.1 0.8 11.8 0.2 7.9 1.1l7.1-1.3c5 0.5 15.1-0.2 16.8 0.7 5.4-0.3 1.5-1.3 9-0.9-0.4 0.2 0.2 0.3-1.3 0.3 3.3 0.4 11.5 0.4 15-0.2-5.2-0.3-1.2-0.3-7.4-0.5 0.1-0.5 7.1-1.2 14.2-0.6-9.6 1.3 7.6 1.3 3.1 2 15.3 0.1 24.1-1.6 36.8-2.8 15.1-0.2 33.8 0.3 45.6-0.8l-1.6-0.1 7.1-0.7c4 0 0 1.4 6.3 1-2.1 1.2-11 0.2-17.4 1.1 11.1 1.2-10.2 1.2-2.9 2.1 4.2-2.4 23.6-0.3 33.2-1.6 9.4 0.2-4.3 1 0.4 1.1l3-0.7c3.7 0.2 4.9 0.4 4.8 1 9.9 0.4 21.3-0.1 29.6-1.1-10.7 0.5 3.7-1.2-7-1.1 3.3-0.5 10.2-0.7 16.7-0.7-6.3 0.3 8.5 1.7-5.5 1.3 1.9 1.2 6.9-0.2 13.2 0-3.2 0.4-10.3 1.1-9.7 1.3 9.4-1.7 30.2 1 33.8-0.2 6.8-1.1 17.3-1.9 25.7-3 8.3 0.9 17.4 0.3 26.8 0.6l-1.7 0.5c5.3 0.2 13.5-0.3 21.3 0l1.7 0.9c5.4-0.3 15.4-0.4 23.6-0.4 0.1-0.5-7.5-0.4-3.9-1.1-4.1 0-7.5 0.1-6.1 0.7-4 0-4.2-0.9-7.5-1.3l15.7-0.6c1.3 0.1 1.7 0.2 1.8 0.2l1.2-0.9c4.1 0 5.2 0.2 4.6 0.6 8.8-0.4 11.9-1.6 21.2-1.4-3.9 0.9-6.5 1.4-13.1 1.4h10.6c-4.8 1-23.3 0.7-20.1 2.2 11.7-0.6 28.8-1.5 39-2.7 5.5 1.2 13.5-0.2 22.5 0.3 1.2 0.2 4 0.5 2.3 1h-2.5c11.9 0.3 25.5-0.5 36-1.4l5.4 1.2c18.1 0.4-3.4-1.8 15.1-2.2 4.5 1.2 22.8 0.6 23.5 1.6 3.5-0.1 5.1-0.1 5.5-0.8-3.1-0.1-10 0.1-6.1-0.7 6.3-0.4 9.3 0.3 14.3 0.2-0.3 0.2-3.9 0.8-2 0.7 3.1-0.1 6.8-0.2 10.9-0.3q3.1-0.1 6.3-0.2 1.6 0 3.2-0.1h1.7c0.5-0.1 1 0 1.7-0.1 5-0.2 9.8-2.2 13.2-5.1 1.8-1.4 3.1-3 4.2-4.6 0.5-0.9 1-1.6 1.4-2.5q0.2-0.6 0.5-1.2 0.2-0.5 0.4-1.1c-1 2.2-1.6 3.3-2.4 4.7-0.9 1.2-1.9 2.7-4.7 4.4-0.1-0.3 0.6-0.8 1.3-1.5 0.7-0.8 1.6-1.6 1.9-2.2-0.6-0.1-1.5 1.2-3.3 2.7-1.7 1.6-4.4 3.3-7.7 3.7 0 0 2.6-0.9 4.8-2.4 0.6-0.4 1.1-0.8 1.6-1.2 0.4-0.4 0.8-0.8 1.2-1.1q0.5-0.5 0.8-0.9 0.3-0.3 0.3-0.3 0 0 0 0c4.2-3.8 7-9.4 7-15.6v-86c0-11.6-9.4-21-21-21h-33.2c7.9-1.1 15.8 0.1 23.9-0.9-0.4 0.2-1.3 0.3 0.2 0.4 2.6 0 4.8-0.1 6.8-0.2 1-0.1 1.8-0.2 2.8-0.2 0.9 0 1.8-0.1 2.7 0 3.5 0.2 7 1.1 10.3 4.1l-1.2-0.1c0.3 0.2 1.6 0.9 2.6 1.6 1.1 0.6 2 1.3 1.9 0.7-2.7-2.7-4.8-3.7-6.7-4.7-0.5-0.2-1-0.4-1.5-0.6q-0.7-0.3-1.6-0.6c-1.1-0.3-2.4-0.7-4-0.9 1.4-0.2 3.6 0.1 6 0.8 2.3 0.8 4.7 2.2 6.4 3.7l1.1-0.5c2.7 1.7 4.6 4.4 5.9 7.2 1.2 2.9 2 5.9 2.8 9q0 0 0-0.3 0-0.3 0-0.9c-0.1-0.7-0.1-1.6-0.3-2.5-0.1-1-0.2-1.9-0.4-2.6-0.2-0.7-0.3-1.1-0.3-1.1 0.1 0.2 0.3 0.7 0.5 1.2-0.6-1.7-1.4-3.1-2-4.2-0.8-1-1.3-1.8-1.7-2zm-664.1 52.8c0.1-1.6 0-2.6 0.3-2.8q0.1 1.9 0.2 4.1c0-0.1-0.1-0.2-0.2-0.3q-0.1-0.7-0.3-1zm439.8-61c0 0-0.3 0.2-1.3 0.3 10.7 0 11.6-0.1 20.1-0.2l-2.6 0.5c1.5 0.8 8.4 0 15.3-0.1 2-0.5 6.5-0.9 9.2-0.3l-1.1 0.6c1.2 0.5 8.1 0.5 15.8 0.6q-1.1 0.2-2.3 0.4h-72.4c6-0.4 12.5-1 19.3-1.8zm-151.4 1.1c4-0.6 9-1.4 15.5-2.4l-0.4 0.2 13.5-0.2-1.6 0.5 7.9-0.9c-0.2 1.1 2.5 0.5 2 1.2 5 1.9 17.7-0.7 28.5 0.1l-1.7 0.5c5.9-1 20.4 0.1 29.7 0.4l-0.3 0.2c-4.4 0.3-6 0.7-5.4 1.1h-13.4c-0.3-0.1-1-0.3-2-0.5-1.9 0.3-4.2 0.4-6.6 0.5h-20.2c0.7-0.2 2-0.4 3.3-0.6l-26.4 0.6q0 0 0 0h-23c0.8-0.2 0.6-0.4 0.6-0.7zm-117.6-2.6l0.7 1c16.6 0.4 28.4-2.1 45.5-1.6-2.4 0.8-8.9 0.3-8 0.8 10.3 0.2 8.9-2.3 19-1-14.5 0.3 9 0.4-4 1.3 18.1-1.5 37.4 0.6 49.4 0.3-3-0.6 4.9-0.9 5.2-1.1 3.1 0.1 2.1 0.7-0.5 0.7 6.2 0.6 7.3 1.4 6.3 2.1l-12.6 0.2c2.2 0.1 3.9 0.4 5.5 0.6h-19.4c-1.2-0.2-1.8-0.4-1.3-0.6-4.3 0.3-10.6-0.5-13-0.3 4.5 0.4 3.6 0.7 1.2 0.9h-7c0-0.3 1.3-0.6-1.1-0.7l-10 0.1 8.7 0.2-1 0.4h-63.6c-5-0.7-7.6-1.8-10.2-2.9 3.6-0.1 7.1-0.2 10.2-0.4zm-51.7 2q-0.5 0-0.9 0 4.9-0.2 9.7-0.4c0.9 0.9 1.2 1.5 0.3 1.7h-1.4q-0.1 0-0.1 0h0.1-12.7c-1.1-0.2-2.7-0.4-4.6-0.5zm-10.4 1.3h-11.2c1.1-0.5 6.7-0.3 11.2 0zm-100.2 18.7q-0.2 1.1-0.3 2.1-0.1 0.9-0.3 1.9l0.1-1c0-0.4 0-0.7 0-1.2 0.1-0.8 0.1-1.6 0.2-2.4q0.3-2.4 1.1-4.7c1.1-3.1 2.9-6 5.1-8.3 4.5-4.9 11.1-7.7 17.6-7.6l-1.7-0.5q0.8 0 1.5 0 0.7 0 1.4 0 1.2-0.1 2.3-0.2c1.5 0 2.8 0 3.8 0.3 0 0.1-1.1 0.3-2.9 0.7q-1.4 0.2-3.2 0.6c-0.6 0.1-1.2 0.2-1.9 0.4-0.6 0.1-1.3 0.2-2 0.5-1.7 0.5-3.4 1.3-4.9 2.2q-2.9 1.1-5.3 3-0.1 0-0.1 0.1c-0.9 0.2-3.4 1.5-5.9 4.6-1.3 1.5-2.5 3.4-3.4 5.8-0.5 1.1-0.9 2.4-1.2 3.7zm2.2 87.9c0.1-1.7 0.1-3.2 0.2-4.8 0 0.3 0 0.4 0 0.7 0 2.2-0.1 3.4-0.2 4.1zm25.7 22.7q-1.9 0-3.7-0.1c-0.6 0-1.2 0-1.8-0.1q-1 0-1.9-0.2c-2.5-0.4-4.8-1.2-6.9-2.4-2.1-1.1-4-2.6-5.6-4.3-1.5-1.7-2.8-3.6-3.7-5.6 1.6 2.8 3.8 5.3 6.9 7.7q-0.9-0.9-1.8-1.8c3.8 3.4 8.7 5.5 14.2 5.5h6.1q0 0 0 0c-1.5 0.2-3.2 0.3-5.2 0.4-0.9 0.1-2 0-3 0-1.1-0.1-2.2-0.3-3.2-0.6 0.1 0.1 0.5 0.2 1.1 0.3 0.6 0.1 1.5 0.4 2.5 0.5q0.8 0 1.7 0.1 0.9 0 1.9 0.1 2.1 0 4.6 0.1zm307-0.8q1.1-0.3 2.2-0.5h5.3c-0.2 0.4-0.6 1.1-7.5 0.5zm10.6-0.5h4.8q-1.4 0.2-3.5 0.2-0.7-0.1-1.3-0.2zm255.7-128h-3c2-0.2 3.7-0.4 5.1-0.5zm25.4-7h0.5q-0.2 0-0.5 0zm-434.7-3.3l-4.2 0.5c7.8 0.2 10.8-0.6 14-1-0.4 0.2 0.2 0.3 1.4 0.6 7-0.2 10.6-1.4 7.1-2.2l-2.3 0.4-4.8-1c-1.9 1.9-16 0.8-23.8 1.7 5.3-0.9 9.9-2.6 16.8-1.5l-0.7-0.9c5.9-0.2 10.8 0.8 14.1-0.2l-7 0.3 0.1-0.6c-4.9 0.1-11.1 0.9-15.7 0.3-4 0.7-7.7 1.7-18.4 1.5l0.3-0.2c-7.2 1.8-20.1-1.1-25.6-0.3-3.1 1.8 11.8 0.7 15.4 1.5-4.5 0.7-9.4-0.3-5.5 0.8-10.5 0.8-6.3-1.6-14.9-0.4l4.9 0.5c-3.9 0.8-10.4 0.3-14.4 1.2-0.5 1.2 6.6 0 14.1 0.4l-3.3 0.9 14.9-1c4.4-1.6 0.3-1.6 9.6-2.7 3.2 0.7 5.6 1.7 6.1 2.6 3.4-0.9 12.1-1.3 21.8-1.2zm465.3 22.5c-0.2-0.4-0.5-1-0.8-1.5-0.3-0.6-0.5-1.1-0.9-1.6q-0.5-0.8-0.9-1.5c-0.3-0.4-0.6-0.7-0.8-0.9-0.4-0.4-0.5-0.3-0.1 0.5 0.9 0.9 2.1 2.9 2.9 4.4 0.8 1.6 1.3 2.8 1.5 2.1-0.2 0.1-0.5-0.5-0.9-1.5zm-0.8 1c-0.2-0.4-0.4-0.9-0.6-1.3q-0.3-0.6-0.5-1.1-0.3-0.5-0.4-0.8-0.2-0.2-0.2-0.2c0 0 0.2 0.2 0.3 0.6 0.2 0.4 0.4 1 0.6 1.5 0.4 1.2 0.7 2.3 0.7 2.3 0.1 0.2 0.3 0.2 0.4 0.4 0.2 0.3 0.5 0.9 0.8 2.3 0 0-0.1-0.5-0.3-1.2-0.2-0.7-0.4-1.6-0.8-2.5zm-116.7-24.5c-0.6-0.7-4.1 0-6 0.1 1.5 0.1 3.7 0.3 6-0.1zm-15.9 150.7c-12.5 0.2-24.1 0.3-43.6 0.6zm-134.1-147.7l5 1.3c11.7-0.6 17-1.8 28.9-2-15.7-1.4-20.7 2-33.9 0.7zm1.8-1.6c7.9-0.3 3.7-1.1 10.9-1l-3.5-1.3c1.9 1.2-9.1 1.4-7.4 2.3zm-44.8-1.5l-5.9-0.4 4.6 0.7zm-42.3 0.3l5.7-0.4-0.6-0.2-5.7 0.5zm-135.1-2.3c7.9 0.3 6.7-1 11.5-1.3-9 0.2-10.9-0.2-21.6 0.1 8.3 0.3 10.5 0.5 10.1 1.2zm11.5-1.3c1 0 2 0 3.1 0-1.3-0.1-2.3 0-3.1 0zm-34.1-0.3c1.6 0.1 4.1 0 5.3 0.3 0.4-0.7-6.8-0.3-5.3-0.3zm40.2 14.7q0.2 0 0.5 0-0.2 0-0.5 0zm-7.9-0.4c0.8 0.5 5.4 0.3 7.9 0.4-2.9-0.3-5.3-1.4-7.9-0.4zm-53.4-10.1c2.2-0.4 5.3-1.7-3-1.2 1.6 0.1 4 0.6 3 1.2zm45.1 9.8l-7 0.2 1.2 0.3zm-139.9-13.7l4.2-0.5-5.2-0.1c1.5 0.1-1.2 1.1 1 0.6zm-2-0.7l1 0.1q-0.3-0.1-1-0.1zm-29.1 12.3c0.8-0.8 1.3-1.2 1.3-1.2 0 0-0.6 0.5-1.4 1.3-0.8 0.8-1.9 1.9-2.7 3.1q-0.7 1-1.4 1.8-0.5 0.9-1 1.7-0.4 0.7-0.7 1.2-0.2 0.4-0.2 0.4c0 0 0.1-0.2 0.3-0.4 0.1-0.2 0.3-0.4 0.3-0.4 0 0 0.3-0.6 0.9-1.5 0.5-0.9 1.3-2 2.1-3.1 0.9-1.1 1.8-2.2 2.5-2.9zm-12.1 45.5l-0.2 1.2 0.4 5.7 0.3-1.2zm196.4 95.7l1.9-0.1q-1.2 0-1.9 0.1zm-21.7 5.6q-0.2 0-0.3 0 0.1 0 0.3 0zm109.2-3.2c3.2-0.5 7.9-0.3 10.7 0 1.1-0.6-2.9-1.2-2.5-1.9-11.7-0.8-13.5 2.1-25 1.7 0.4-0.7 4-1.4-3.5-1.3l1.9-0.1c-12.1 0.8-9.4-1.7-17 0.3l0.2-1c-5.5 0.8-16.1 0.8-22.1 0.9l0.3-0.2c-16.8 1.2-9.4 0.3-28.3 0.8l8.7-1.3c-6.5-0.5-8 0.9-12.6 0.7 0.2-0.1-0.4-0.7 1.7-1l-21 1.7c-5.5 0.8 1.1 0.8 2 1.3-2.1 0.6-12 0.2-12.5-0.4 1.3-0.3 6.7-0.6 3.3-1l-7.8 1.7c-10.5-1 7.9-2.2 13.1-2.8-10.7-0.2-13.8 0.9-25.1 0.9 3.3 0.1 5.4 0.6 7.2 0.9 0.4 1.2-10.2 0.7-17.7 0.8 4.8 0.5 2 0.9-1.5 1.4-0.6 0-1 0.1-1.3 0.2q-0.6 0-1.2 0.1h0.9c-0.1 0.2 0.1 0.3 0.8 0.5 6.3-0.3 11.1 0.7 15.2 0.7-4-1.9 13.9-0.4 19-1l5.9-0.2h2.2c0.4 0.2-0.1 0.4-3.2 0.8 3.2-0.3 11.8-0.2 11-0.8l21.4-0.1c0.7 0.1 1.3 0.2 1.8 0.3 0.8-0.1 0.9-0.2 0.8-0.3l93.3-0.1c-4.6-0.1-8.6-0.6-13.4-0.8 7.1-1.3-7.8-0.2-5.7-1.4zm-139.7-1.1c1.5 0.1 2.9 0.1 4.2 0.1-1.2-0.1-2.6-0.1-4.2-0.1zm165.3 3.3h-6.5c2 0.1 4.1 0.1 6.5 0zm-182.3-1l-11.7 0.1c4 0.5-2.9 0.8-3.6 1.2l14.2-0.1c-0.1-0.4 1.3-0.8 1.1-1.2zm3 2c0.5-0.3 2-0.5 3.7-0.8h-7.8c0 0.3 0.9 0.6 4.1 0.8zm227.7-5.2c1.1 0 2.1 0 3.1 0-1.4 0-2.3 0-3.1 0zm37.1 0.7c-9.9 0-24.4-0.7-27 0.4 0.2-0.2 0-0.4-1.4-0.5l-6.2 1.2 5.9 0.3c-6.2 1.2-26.2 1-29.8 0.2 11.3-0.4 5.6-1.8 21.5-1-0.7-0.4-3.6-1.1-0.1-1.3-18.5 0.5-35.2-0.2-54.4 1.1 15.2 1.1-9.9 0.9-5.1 2.5l8.2-0.5-0.7 0.4 10-0.2c-2-0.7-3.6-0.7-3.1-1.4 13.4 0.2 4.2 0.8 14 1.7l15-0.1-1.2 0.2c1.3 0 1.8-0.1 2.3-0.2l50.4-0.5c9.2-0.5-5-1.3 1.7-2.3zm94.7-0.3l-0.2 0.1c0.4-0.1 0.5-0.1 0.2-0.1zm-8.3 0.5l2-0.7-9 1.4 14.1-0.1 1-1c-1.2 0.2-6.2 0.7-8.1 0.4zm-6.5-0.6c-0.1-0.8-8.3-0.3-10.2-0.2l-0.8 2.4c7.3-0.5 6.9-1.6 2.9-2.2 6.7-0.5 3.5 1.3 8.1 0zm-64.7 1.5l2-0.4-5-0.2zm5.5-1.3l-3.5 0.8 5 0.2c-0.3-0.4-0.7-0.8-1.5-1zm22 1.5l-7.3-0.2c2.1 0.1 4.4 0.2 7.3 0.2zm-12.9-0.3l5.6 0.1c-2.1-0.1-3.9-0.2-5.8-0.3zm1.5 1.3l-1.5-1.3-7.6-0.2c0.9 0.8 1.8 1.7 9.1 1.5zm24.8-0.7c-0.1 0.5 3.7 0.2 5.6 0.1-1.5-0.1-3.7-0.2-5.6-0.1zm146.9-1.6c-1.2-0.3-1.8-0.4-3.4-0.4z"/></svg>