<svg version="1.2" xmlns="http://www.w3.org/2000/svg" viewBox="0 0 2000 1728" width="2000" height="1728">
		<path id="AD-02" class="s0" d="m1222.3 278.8l31.4 5.7 19.2 2.4 8 25.8 7.6 7.5 6 5.3 10.3 4.6 7.5 2.1 5.3 3.6 8.2 2.5 7.2-3.1 3.1-4.3 3.6-4.6 4.3-4.2 5.9-1.1 8 1.9 7.3 1.9 8.7-0.8 10.3-4 6.1-5.1 10.9-1.1 4.3-3 7.4-9.4 7.7-2.8 8-0.5 6.8 0.5 8.9 4.8 12.4 3.3 13.8 6.1 8.2 2.3 9 0.5 11.4-1 12.8-0.5 11.1 8 5.3 6.4 19.2 5.3 15.5 11.5 26.2 21.3 35.4-1.3 12.2-6.1 14.1-1.4 14.6 4.9 12.7 0.5 10.2-2.1 18.5-7.8 5.3 6.2 3.6 14.2 2.2 14.3-18.9 21.8-11 9.4-5.3 15.4-7.5 19.2-6.5 7.1-6.5 3.8-6.3 5.1-3.7 13-4.4 18.1 1 43.3 2.5 4.2 7.8 5.4 26.7-1.8 52.4 5.1 26.2 14.9 33 15.6 25.6 8.5 38.2 9.2 60.7-9.2 12.7-5 13.4 0.4 4.3 7.6 2.5 5.9 3.8 11.4 5.5 5.9 6 13 4.9 13.4-3.3 4.7-8.4 9.2-18.8 17-15.5 8-9.7 7.1-13.4 9.3-25.2 10.5-19-2.6-52.6 0.9-30.5 5.3-8 5.7-8 7-10.5 8.8-19.9 24.3-10.7 9.4-2.1 3.9-19.8 1-18.7-0.8-26.1 0.8-45.5-6.7-35.5-2.5-30.5-4.2h-20.5l-16.2-4.2h-23.7l-16.8-0.9-13.1 3.4-5.6 8.4-8.1 6.7-9.3-4.2-6.9-11.8-6.8-2.5-13.1 0.9-11.2 14.3-13.1 9.2-12.4 9.3-12.5 12.7-16.8 15.9-14.8 15.7-4.5 1.9-24.2 10.8-13.4-1.2-11.9-2.9-7.8-7.9-11.2-7.6-24.6-1.4-4.8-5-6.8-5.8-9.1-10.4-7.3-7-6.4-1.3-6.9 1.5-7.4 5-18 2.8-5.8 2.6-9.1 1.7-5.8 1.3-7.7 4.8-12.5 12.1-7.1 9.2-3.6 7.7-8.7 1.3-4.3-2.4-16.8 4.2-6.6 6.3-5.7 6.4-6.7 3-11.2-0.7-10-3.3-2.3-3-7-9.9-10.9-5.4-5.5-3.7-17 1-35.1 0.7-36.6 1.4-133.8 5.8 8.3-5 21-13.4 9.8-4 5.9-10.1 3.1-17.3 6.5-20.6v-15.6l-4.3-16.4-6.6-13.1-8.9-6.3-3.6-6.1-1.5-6.5 0.4-10.6-2.6-12.9-4.1-8.6-3.2-7.6-0.2-16.9 3.6-20.2 0.1-20.7-1.5-14.4-2.7-10.9-4.1-2.8 0.3-4.8 1.8-4.9 6-5.2 7.4-2.1 5.5-5.6 6.1-7 9.1-4.5 7.7-6.8 5.4-9.9 3.6-7.3 1.5-8.4-1.7-11.5 3.2-14.1 0.7-10.9 1.7-8.6 6.2-5.3 3.9-4.8 4.1-5.6 3.5-5 5.1-2.3 11.4-2.5 19.2-5.1 5.8-7 8.4-5.5 5.6-8.8 13.7-13.5 5.6-11 5.6-6.7 6.3-4.6 12.4-4.3 10.6-2.1 16.5-3.8 14.6-0.4 2.9-5.8 1.1-9.4-1.5-8.2-2.9-3.8-3-3.8-0.6-8.3 4.7-20.6-6-9.5-5.2-8.9-2.4-9.8 4.2-1.4 4.8-1.6 8.7-7.4 9.8-10 9.5 1.7 7.5 10.9 22.7-0.4 13 5.2 12.5-3.2 20-3.6 18.1 0.5 18.1-4.6 9.6-10.5 14-6.9 6-0.8 8.1 6.5 10.1 8.1z"/>
		<path id="AD-03" class="s0" d="m1466.2 759.7l16.8 0.9h23.7l16.2 4.2h20.5l30.5 4.2 35.5 2.5 45.5 6.7 26.1-0.8 18.7 0.8 19.8-1-3.6 6.5-3 17.2-10 12.7-4.7 6.7-2 9.4 0.7 8.1 2.3 8.4-1 19.2-3.5 11.8-1 14.5 0.5 15.1 2.3 24.8 1.4 8.4-3.5 10.4-6.7 11.8-4.2 5-5.7 5.4-2.3 9.8-3.2 9.7-4.3 5.8-10.2 11.7-10.4 17.2-6 8.1-7.2 5-0.3 19.8 21.4 12.4 2 36.7 1.5 16.5 0.3 33-1.3 4.4-3.2 4.5-23.6 11.4-7.8 5.5-9.7 14.8-11.1 19-12.3 16.3-8 10.1-9.7 8.1-10 5.7-10.4 3.4-9-0.7-15.9-13.1-13-8.8-26.5-23.2-12.5-5.4-10.2-1-11.2 2-9.7 3.4-12.7 0.3-16.9 2-18.1 3.4-11.5 3.7-24.1 1-18.9-2.7-4 2.1-8.3 3.4-2.8 6.3-29.4-4.6-15-5.4-33.4-8-19.9-2.7-29.4-8.1-21.9-7.4-26.4-3.4-17.2-6.2-14-7.6-9.7-5.5-5.9-3.8-7.4-0.4-7.2 0.4-5.6 5.5-7.8 7.1-5 2.1-15.9 3-20.8-5.1-14.4-4.2-14.5-14.4-26.5-14.6-20.6-11.8-18.4-16.4-16.2-16.9-19.6-17.6-19.6-13.1-22.4-17.7-12.8-11.5-7.8-6.4-7.1-0.4-8.7 4.6-7.2 4.2-6.5-1.6-6.6-4.7-12.1 1.7-7.9 6.4-7 10.9-4.4 6.7-11.8 6.3-13.1 1.3-12.1-2.5-11.5-9.7-9.4-12.2-4.4-13.5-3.4-23.1-0.9-8.9 5-7.1 4.3-6.1 0.7-9.5-2.8-11-0.7-10.1 3.1-10.5 6.3-8 6.8-8.4 11.2-10.5 7.5-6.3 5.6-10.1 6.2-7.6 6.3-8.9 2.1-7.1 3.1-12.2 0.4-8.7 2.8-6.4 3.3-8.4 9.3 2.2 133.8-5.8 36.6-1.4 35.1-0.7 17-1 5.5 3.7 10.9 5.4 7 9.9 2.3 3 10 3.3 11.2 0.7 6.7-3 5.7-6.4 6.6-6.3 16.8-4.2 4.3 2.4 8.7-1.3 3.6-7.7 7.1-9.2 12.5-12.1 7.7-4.8 5.8-1.3 9.1-1.7 5.8-2.6 18-2.8 7.4-5 6.9-1.5 6.4 1.3 7.3 7 9.1 10.4 6.8 5.8 4.8 5 24.6 1.4 11.2 7.6 7.8 7.9 11.9 2.9 13.4 1.2 24.2-10.8 4.5-1.9 14.8-15.7 16.8-15.9 12.5-12.7 12.4-9.3 13.1-9.2 11.2-14.3 13.1-0.9 6.8 2.5 6.9 11.8 9.3 4.2 8.1-6.7 5.6-8.4z"/>
		<path id="AD-04" class="s0" d="m350.4 450.7l4.4 4.7 4 4.6 11.2 2.1 10 4.7 19 6.8 4.6 9.2 8.7 4.2 8.4-0.9 6.9-2.7 14.3 6.9 8.4 19.8 0.1 13.9-1.6 10.4 3.3 12.2 2.7 12.9-0.6 16.6-0.9 12.9 2.1 10.5 0.9 16.6 5.3 11.3 8.1 8.5 5.4 9.7 3.9 13.4 6.6 12.1 9.5 13.3 11.7 10.3 6.8 6.5 10.5 3.7 11.1 4 5.3 8.5 3.6 11.7 5.4 12.5 5.7 2.1 6.6 3.6 7.2 10.9 1.4 10.9-2.9 6.9v12.5 10.6l6.5 9.7 1.7 10.3 2.1 1.9 2.8 5.7 14.1-1.4 14.3-2.8 4.2 2.8 13.4 1.6 12.3 5.3 13.1 3.2 17.8 10.1 13.5 3.6 15.1-4.8 15.9-0.4 9-6.4 14-3.3 10.3 3.3 19.9 3 11.6 7.6-3.3 8.4-2.8 6.4-0.4 8.7-3.1 12.2-2.1 7.1-6.3 8.9-6.2 7.6-5.6 10.1-7.5 6.3-11.2 10.5-6.8 8.4-6.3 8-3.1 10.5 0.7 10.1 2.8 11-0.7 9.5-4.3 6.1-5 7.1-3.3-4-5.4 1.1-6.7 6.3-15.6 3.8-17.7 2.6-17.2-3.4-17.2-8.1-27.3 1.8-8.8 8-10.6-5.5-11.8 3-8 10.9-3.1 6.3-9 8-11.5 1.7-15.6 0.8-12.1 1.7-8.1 11-10.6 8.4-8.1 0.4-8.1 0.4-10.3 3-7.8 9.2-6.2 3.4-10.3-0.4-11.2 0.4-14.3-2.9-12.8 2.1-12.7 0.4-11.6 5.4-18.3 5.9-19 4.3-8.7 5.8-12.2 7.2-12.4 2.9-5.4 1.2 1.8-3.4-2.6-12.9-4.2-11.7-21.8-49.7-7.8-14.9-8.1-11.8-12.2-12.5-6.3-7.7-8.1-13.3-6.3-17-2.7-12.9 0.6-10.5 3.6-7.3 2.4-6.1 0.1-13.1-4.2-5.6-9.4-6.4-14.2-7.1-13.1-7.8-8.9-3.5-10.4-2.1h-8.4l-8.4 1.4-5.7 4.2-18.2 10.4-15.6 6.4-12 7-8.2 1-5.7 1.4-8.4 4.3-11.5 8.5-5.2 3.5-10.3 9.1-12.8 1.6-7.3-2.2-2.1-0.7-1-2.1-1.1-8.5 1.1-12.1 6.8-7.1 4.8-5.7 3.9-7.3 7.4-12.1 6-6 0.4-14.1v-4.3l-1.1-14.8 1.6-5 5.8-9.9 7.8-17 4.7-10.6 5.8-13.4 9.9-12.1 8.4-9.2 4.7-2.8 12.1-3.6 11-4.9 12.5-6.4 17.3-7.8 8.9-5.6 5.2-5.7 8.9-8.5 2.6-5 1.1-6.3 0.5-9.2-1.1-5.7-2.1-5.7-2-4.9-1.6-2.8-5.2-3.6-14.2-2.8-9.4-1.5-5.8-2.8-6.8-3.5-5.7-3.5-3.1-4.3-5.8-9.2-7.9-11.3-3.6-5.7-3.7-5-7.3-12-4.7-6.4-2.1-4.2v-2.8l0.5-2.9 2.6-4.2 1.1-5 1-4.2v-4.3l1.1-6.4 1.5-3.5 2.6-1.4 3.7-1.4 8.9-2.9 4.2-2.1 5.8-6.4 13.6-13.4 13-8.5 11-11.4 2.7-5.6 2.6-12.8 1.6-11.3 3.6-5.7 3.1-9.2 1.6-12.7v-8.4l28.3-0.1 14.6 4.2h10.5l12.7 2.3 8.3-2.5 5.7-4.4 6.9-17.8 16.1-1 6.8-5.6h23.6l16.1 21.7 15.4 4.5z"/>
		<path id="AD-05" class="s0" d="m1007.7 292.3l2.4 9.8 5.2 8.9 6 9.5-4.7 20.6 0.6 8.3 3 3.8 2.9 3.8 1.5 8.2-1.1 9.4-2.9 5.8-14.6 0.4-16.5 3.8-10.6 2.1-12.4 4.3-6.3 4.6-5.6 6.7-5.6 11-13.7 13.5-5.6 8.8-8.4 5.5-5.8 7-19.2 5.1-11.4 2.5-5.1 2.3-3.5 5-4.1 5.6-3.9 4.8-6.2 5.3-1.7 8.6-0.7 10.9-3.2 14.1 1.7 11.5-1.5 8.4-3.6 7.3-5.4 9.9-7.7 6.8-9.1 4.5-6.1 7-5.5 5.6-7.4 2.1-6 5.2-1.8 4.9-0.3 4.8 4.1 2.8 2.7 10.9 1.5 14.4-0.1 20.7-3.6 20.2 0.2 16.9 3.2 7.6 4.1 8.6 2.6 12.9-0.4 10.6 1.5 6.5 3.6 6.1 8.9 6.3 6.6 13.1 4.3 16.4v15.6l-6.5 20.6-3.1 17.3-5.9 10.1-9.8 4-21 13.4-8.3 5-9.3-2.2-11.6-7.6-19.9-3-10.3-3.3-14 3.3-9 6.4-15.9 0.4-15.1 4.8-13.5-3.6-17.8-10.1-13.1-3.2-12.3-5.3-13.4-1.6-4.2-2.8-14.3 2.8-14.1 1.4-2.8-5.7-2.1-1.9-1.7-10.3-6.5-9.7v-10.6-12.5l2.9-6.9-1.4-10.9-7.2-10.9-6.6-3.6-5.7-2.1-5.4-12.5-3.6-11.7-5.3-8.5-11.1-4-10.5-3.7-6.8-6.5-11.7-10.3-9.5-13.3-6.6-12.1-3.9-13.4-5.4-9.7-8.1-8.5-5.3-11.3-0.9-16.6-2.1-10.5 0.9-12.9 0.6-16.6-2.7-12.9-3.3-12.2 1.6-10.4-0.1-13.9-8.4-19.8-14.3-6.9-6.9 2.7-8.4 0.9-8.7-4.2-4.6-9.2-19-6.8-10-4.7-11.2-2.1-4-4.6-4.4-4.7-8.4-1.2-15.4-4.5-16.1-21.7 6.8-12.1 21.1-27.8 4.7-6.5 7.5-8.9-3-9.3-5.4-7.3-5.3-14.2-1.8-9.7-2.1-13.8-3.7-4.5-3.7-9.5-10.3-6.6 0.3-10.1 3.7-5.9-0.4-5.5-4.1-11.5-7.8-8-1.5-9.3 2.7-7.3 3.2-6.4 2.1-13.4 6-6.5 5.4-7.3 8.3-1.5 4-4.3 6.5-9.4 6.6-7.2 1.5-10.6v-8.5l-1.5-8.1 0.9-9.3 6.4-5.3 1.6-12.8-1.1-17.5 3.3-4.9 12.9-1 8.4-0.7h8.4l11.5 0.7h10.5l3.8-6.6 9.6-3.3 12.2 1.4 2.6 2.8 9.4 14.2 6.9 12.1 4.7 9.9 5.7 9.9 5.3 4.3 2.1 1.4 21.9 2.1 23.6-3.5 22.2-1.7 17.6 3.8 12.8 1.6 7.4-9.3 5.9-12.9 13.9-9 9-5.2 5.7-3.7 11-2.4 9.9 4.9 10.7 8.5 10.5-3 10.5-9.9 5-6 8.7-1.8 12.3-6.1 18.8-8.5 12.8-4.8 9.3-0.4 17.3 10.6 17.4 13.7 9.6-0.4 3.8-3.7 7.5-7.7 14.1-0.5 2.1 2.3 9.8 20.5 9.5 11.7 9.6 7.7 25-2.5 4.9 13.9 3.3 5.2v18.7l3.8 4.8 10.5-0.8 2 6-1.2 9.6 0.9 10.5 4.8 9.3 6.6 9.3 12.6 11.8 8 6h16.8l19.7 2.5 10.4 6.8 6.3 9.4 8.9 11 11 15.5 6.7 11.1 9 0.4z"/>
		<path id="AD-06" class="s0" d="m250.9 1222.8l14 10.5 11.3 6.5 9.7 6.8 10.6 8.8 14 10.5 16.5 10.1 13.6 6.8 15.9 11.3 17.8 14.3 16.5 14.3 16.2 15.2 15.5 7.9 13.8 2.6 18-7.2 10.6-4.6 12.8-11.4 12.7-8 11.2 0.5 13.1 2.9 13.4 5.1 12.1 5 19.9 7.6 25.3 2.1 20.8 0.4 30.8 0.9 15.3 3.3 30.8 2.5 20.6-1.2 1.2 18.5 4.1 14.3 6.2 9.7 11.2 2.1 10.6 0.4 7.6 1.7 3.9 3.3 0.9 7.6v7.1l2.5 13.1 7.2 8.8 6.5 6.3 10 12.2 9.6 11.8 4.7 7.1 3.3 7.5-3.3 3.3-2.4 4.4-2.7 16.9 0.9 9.3 4.1 15.5-1.8 21.5 4 24.9-1.7 9.3-7.3 2-10.9 1-8.6 6.3-1.6 14.7-0.7 22.1 0.7 15.8-1.5 16.8-5.5 4.2-15.5 2.1-6.3-4.2-5.4-1.1-7.8 3.2-7.8 1h-15.5l-7-3.1h-7.8l-5.5 6.3-21-2.1-0.4-0.2-8.4 2.1h-26.9l-9.5 9.6-10.1 3.2-10.1 1-20.2 9.5-31.1-3.2-16.4-3.1-16.3-9.5-2.9-4.3-26.6-13.1-20.9-4.9-33.5 0.7-26.7 2.8-4.6-0.8-16.9-4.7-23.6-9.3-19.5-2.1-13.2-3.1-4.9-3.9-66.6-2.4-9-4.8-16.6-1.4-6.2-2.8-9.4-5-9.5-11.3-9.9-11.3-6.8-11.3-1.6-2.1v-2.1l2.6-0.7h6.8l4.5 0.9-1.1-8.2-0.9-6.5-1.8-7.6-3.3-4.4-1.2-7.3-2.6-8.1-3-4.4-5.1-3.7-1.7-20.7-0.5-7.8 0.5-5.6 1.1-2.1 2.6-3.6 4.2-4.2 8.3-7.8 4.2-3.5 6.8-9.2-0.5-5-1-2.1-4.8-4.2-7.8-5-6.8-4.9-7.3-6.4-3.7-4.9-2.1-5-1.6-12 0.6-10.6-0.6-14.1v-6.4l-1-9.2 0.5-5.6 1.6-6.4 2.8-5.2-3.5-6.8-15.5-14.6-16.1-18.4-9.2-10.4-45.9-0.7-9-2.1-7.1-1.7-3 0.2-4 2-5.6 1.3-5-1.8-3.5-6.6-3.7-5.2-9.7 0.7h-5.2l-2.8 2-3.7 1.7-4.2-0.7-3.5-3.4-2.5-3.7-1.8-4.3-1.2-6.1 3.7-7.4 5.3-4.1 6.2-4.3 8-6.1 6.5-6.4 3.9-5 4-5.7 7.2-4.4 6.8-3 16.4-0.4 6.2-1.3 7-3.1 6.3-0.5 20.3 0.9h33.1l16.9-3.3 9-8.5 18.4-3.6 12.2-5.4 13.7-8.7 3.5-4.2 10.2 9.2 12.7 10.1z"/>
		<path id="AD-07" class="s0" d="m625.7 1064l10.6 16 2.5 6.7 2.8 13.5 5.6 12.6 7.5 14.8 4.7 12.6 1.8 10.1-1.2 8.4-10.9 5.9-4.4 7.1 1.9 10.5 4.7 13.9 5.3 5.9 5.3 13.7 5.9 14.7 5.9 10.5 8.1 3 4 10.5 3.5 13 4.6 7.2 6 8.8 7.1 7.6 4.7 8 5.3 8.8 3.1 7.2v7.1l-6.9 11.8-9.5 12.4-20.6 1.2-30.8-2.5-15.3-3.3-30.8-0.9-20.8-0.4-25.3-2.1-19.9-7.6-12.1-5-13.4-5.1-13.1-2.9-11.2-0.5-12.7 8-12.8 11.4-10.6 4.6-18 7.2-13.8-2.6-15.5-7.9-16.2-15.2-16.5-14.3-17.8-14.3-15.9-11.3-13.6-6.8-16.5-10.1-14-10.5-10.6-8.8-9.7-6.8-11.3-6.5-14-10.5-13.4-8-12.7-10.1-10.2-9.2 4.5-5.3 1.7-11.4 1.4-3.6 8.4-6.8 5.3-4.8 10-11.6 9.4-6.3 9.3-4.3 20.6-20 12.4-11.2 1.3-2.1 5.4-1.2 12.4-2.9 12.2-7.2 8.7-5.8 19-4.3 18.3-5.9 11.6-5.4 12.7-0.4 12.8-2.1 14.3 2.9 11.2-0.4 10.3 0.4 6.2-3.4 7.8-9.2 10.3-3 8.1-0.4 8.1-0.4 10.6-8.4 8.1-11 12.1-1.7 15.6-0.8 11.5-1.7 9-8 3.1-6.3 8-10.9 11.8-3 10.6 5.5 4.4 15.6 6.8 17.2 4.1 6.8 5.6 1.6 10.2 1.7z"/>
		<path id="AD-08" class="s0" d="m588.7 1013.1l8.8-8 27.3-1.8 17.2 8.1 17.2 3.4 17.7-2.6 15.6-3.8 6.7-6.3 5.4-1.1 3.3 4 0.9 8.9 3.4 23.1 4.4 13.5 9.4 12.2 11.5 9.7 12.1 2.5 13.1-1.3 11.8-6.3 4.4-6.7 7-10.9 7.9-6.4 12.1-1.7 6.6 4.7 6.5 1.6 7.2-4.2 8.7-4.6 7.1 0.4 7.8 6.4 12.8 11.5 22.4 17.7 19.6 13.1 19.6 17.6 16.2 16.9 18.4 16.4 20.6 11.8 26.5 14.6 14.5 14.4 14.4 4.2 20.8 5.1 15.9-3 5-2.1 7.8-7.1 5.6-5.5 7.2-0.4 7.4 0.4 5.9 3.8 9.7 5.5 14 7.6 17.2 6.2 26.4 3.4 21.9 7.4 29.4 8.1 19.9 2.7 33.4 8 15 5.4 29.4 4.6-3.4 11.5v9.2l0.3 20.9v19.9l-0.8 20.6-1.8 6.8-1.9 7.8-1.4 5.8 0.5 5.3 3.9 4.6 2.1 7.4 7.4 9.8v7.8l-7.3 5.6-9.2 7.3-6.7 12.1-8.2 16-8.3 4.2-24.6 1.4-11-3.5-9.4-4.2-8.4 3.5-8.4 7.2-9.7 5.1-14.2-3.1-6.7-10.3-9.3-1.1-7.2 7.2-8.9 6.3-6.8 5.7-2.8 9-6.7 2.4-8.2-0.7-3.2-3.4-13.1-5.9-7.4-3.7-10.7-3.3-11.8 8.4-8.3-0.7-15.2-2.1-12 0.7-13.1 4.2-10.5 1.4-12-2.1-14.2-4.9-15.7-12.1-12.1 0.3-7.2 1.9-3.6 4.1-9.3 2.8-10.7 3.7-9.8 3-9.2 9.1-9.5 13.1-10.4 20.2-2.4 10.4-12.6 39.6-5.3 9.9-6.7 4.2-10.2-1.8-11.3-12.3-13.1-14.2-17.3-23.3-4.7-11-6.1-5.8-5.7-1.6-8.1 0.8-3.8 3.1-4.5 4.7-4.6-0.5-5.6 0.4-5.4-1.2-3.3-7.5-4.7-7.1-9.6-11.8-10-12.2-6.5-6.3-7.2-8.8-2.5-13.1v-7.1l-0.9-7.6-3.9-3.3-7.6-1.7-10.6-0.4-11.2-2.1-6.2-9.7-4.1-14.3-1.2-18.5 9.5-12.4 6.9-11.8v-7.1l-3.1-7.2-5.3-8.8-4.7-8-7.1-7.6-6-8.8-4.6-7.2-3.5-13-4-10.5-8.1-3-5.9-10.5-5.9-14.7-5.3-13.7-5.3-5.9-4.7-13.9-1.9-10.5 4.4-7.1 10.9-5.9 1.2-8.4-1.8-10.1-4.7-12.6-7.5-14.8-5.6-12.6-2.8-13.5-2.5-6.7-10.6-16-5.9-8-10.2-1.7-5.6-1.6-4.1-6.8-6.8-17.2z"/>
</svg>