<svg version="1.2" xmlns="http://www.w3.org/2000/svg" viewBox="0 0 4095 4095" width="4095" height="4095">
		<path id="BI-BB" class="s0" d="m1337 1517.6l-6.8 15.4-18.8 17.1 3.5 14.2-4 4 10.8 13.6h7.4l2.3 7.4 25.6 19.9 2.8 4.6-3.4 4 5.7 9.6-4 7.4-7.4-1.7-8.5 7.4 1.7 7.4-4.6 21.1-14.2 21-3.4 26.2-16.5 19.9-6.8 21.1-5.2 6.2-3.4-0.5-0.5 17.6 4.5 2.3-5.7 5.1-11.9 22.8-3.4 1.7-8.6-3.4-13.1 0.5-24.4-26.7-12 14.2-9.1 3.4-8-4.5-5.6 0.5-10.3 9.7-10.2 1.2-17.1-4.6-15.4 2.8-18.2-1.1-7.4 8-23.9 11.9 1.7-6.2-5.1-23.4-129.7 16.5-8.6 3.4-3.9 9.2-18.2 10.2-9.7 2.8-4.6-2.2-22.7 19.9-10.8 4.5-8-1.7-12 9.1-7.4 18.8-17.6 22.2-1.7 6.3-5.7-7.4-12.5-5.7-12.5-14.3-4-23.3-10.3-17.6-5.1-1.7 0.6-6.9-6.8-1.1 1.1-14.2h-6.8l-4.6-3.4-6.8 2.2-16.5-18.7-4-23.4 2.3-6.2-9.1-19.4 1.7-18.8 9.1-6.8-1.1-5.7 6.2-6.2-2.3-6.3-10.2-10.2 0.6-6.3-7.4 0.6-3.4-6.3 5.1-19.9h6.8l5.1-5.1-13.1-8 15.4-25-8-8 0.6-7.4 5.7-1.1 4-4 1.7-9.1 9.1-4.6 0.6-17.6 7.9-1.1-0.5-12 2.8-8 8 2.9-5.2-11.4 2.9-2.3 8 4.6 7.4-15.9 7.9-2.3-7.9-2.3-11.4-11.4 4-4v-7.9l9.1 1.1 17.6-1.7 13.1 5.7 9.1-9.1 7.4 3.4 11.4-0.6 13.6-7.4-6.8-39.8 5.7-19.3h6.8l-10.8-22.8-5.7-6.3-2.3-32.4 13.7-6.2 13.1-18.3-0.6-19.3 8-2.8 7.4 2.2 4.5-5.7 7.4-2.2 4.6 6.2 11.9 2.3 27.3-18.2 8 5.7 6.8-3.4 4 3.9 6.3-4.5 1.7-5.7 5.7-4.5-8-12.6-0.6-6.8 13.1-48.4 14.2-6.8 4.6-9.7 6.8 1.2 16.5-8.6 23.9 2.3 6.3 7.4-1.7 10.3 5.1 2.2-1.7 5.7 2.8 6.9 9.7-2.3 6.3 5.7 3.4-4.6 1.1-10.8 9.7 0.6 6.3-5.7 5.6 0.5 7.4-9.6 2.3-9.1 18.8-4.6 15.9-10.2 6.9-2.3 15.9 5.1 21.6-5.7 3.4 4.6 2.3-2.9 6.3 4 2.8-28.4 13.1-13.7 18.2 1.2 8-4 5.7 1.1 3.9 3.4 2.3 10.8 8 0.6 5.7 6.8-10.3 31.3 5.2 7.4-2.3 16.5 5.7 9.7 3.4 19.3 6.2 2.9 4 9.7v8.5l6.9 13.1-5.2 11.4 5.7 10.2 3.4 18.2 5.2 5.1 0.5 9.1 10.8 12-1.7 3.4 9.1 8.5 0.6 5.7 5.7 1.2-2.3 11.9-5.7 4.6 4 1.7 0.6 4.5 7.9 1.7 4 13.1-2.8 6.9 19.9 29v10.8l-6.8 9.1 4.5 11.9z"/>
		<path id="BI-BL" class="s0" d="m1251.1 1809.5l10.3 13.7v11.9l11.4 12.6h6.8l9.7 12.5 6.2 33 14.2 19.9 1.2 4-6.3 11.4-10.8 6.8-6.3 17 14.3 7.4 6.8 15.4 22.8 18.2 10.2 13.1 6.3 15.9 5.1 25.6 5.1 6.9v9.1h5.7l14.2-23.9 21.6-7.4 16.5 12.5 2.3 7.4-7.4 8-7.9 25-6.3 6.8 4.5 11.4-6.8 15.9 1.2 8.6-2.9 5.7 4.6 6.8 7.9 4 4 9.6-2.3 6.3 23.4 21.1 1.7 16.5-1.7 6.8-25.6 18.2-6.3 12.5 1.1 22.2-2.8 1.1 1.1 18.3-3.9 5.1 0.5 14.2 19.9 5.7-3.9 33-5.7 4-18.8-5.7-4 5.1 1.1 5.7-3.4 8-4 0.5-4.5 8.6-8.5 4-8.6-1.2-17.1 15.4 3.5 15.3-1.7 5.7-7.4 2.9-22.2 21.6-4 25.6-21.6 27.3-5.2 13.1 0.6 14.2-7.4 12.5 1.7 26.8-6.2 10.2 1.7 8-5.7 4-4 11.9-5.1 3.4-14.3-1.7-1.1 5.2-5.7 2.2-7.4 17.7 3.4 10.8 9.1 7.4-3.9 9.7 2.2 6.2-3.4 4h-9.7l-3.4 6.3-8.5-1.2-7.4-11.4-7.4 13.1-8.5-1.7 1.1 3.4-6.8 6.9-16.5-2.3-1.7 2.8-10.3-3.4-2.8-11.4-4.6-1.1-6.8 6.3-5.7-1.7-9.7 5.6-6.2 6.9-1.2 8.5-3.9 3.4-8-1.1-4.6 6.8-5.1-6.3-6.8 1.2-1.7-7.4-2.9 5.1-9.1 1.7-19.3-4.5-22.8 5.7-10.2-5.7-52.4 8.5-8.5-2.8-11.9 4.5-18.3-0.6-26.1 8-12 0.6-3.4-29 6.3-10.3 12.5-10.8v-17.6l6.2-7.4 8-20-1.1-3.9 8.5-13.1 0.6-16 10.8-21.6-4-8.5 8-16.5 5.1-26.8-0.6-12.5 9.7-7.4-2.9-6.8 6.3-14.2-5.7-23.4-6.2-10.8 0.5-15.3 9.1-7.4 3.4-22.2-11.9-12 0.6-8.5-10.8-13.1 1.7-9.1-3.5-8 5.2-22.7-5.7-12.5 14.8-34.7-9.7-13.1-10.2-4.6 0.5-4 5.1 2.9 5.7-5.1 6.3 2.2 6.3-4.5 6.2 2.8 19.4-6.8 7.4-5.7 9.6 5.7 10.8-1.7-4.5-1.7-4-23.9 6.8-9.1 1.2-16.5-10.3-10.8 6.9-38.2 22.7 4.6 21.1-6.8 1.1-2.9-8-1.1-8.5-6.3-11.9 1.2 3.9-12-3.9-5.7 9.6-1.7-8.5-13.6v-5.2l3.4-6.8 10.3-2.3 21 6.3 4.6 7.4v-13.1l-4-6.3 5.7-4.5-6.9-17.6 4.6 1.1 9.1-30.7-3.4-33 9.7-15.4 17.6-8.5-1.7-6.9 9.1-3.9 1.7-4.6-15.9-10.2-46.1-12.6-22.8 4-24.5-7.9-16.5 1.7-23.3-5.7h-7.4l-22.7 29.6-14.3-38.7-22.2 3.4 10.9 66.6-3.5 1.1 4 13.1-43.8-6.3-10.8 1.7 5.7 4.6-14.2 13.6 6.2 2.3-6.2 6.3-21.1-3.4-5.7-5.2-3.4 4-10.8-3.4-59.8-0.6-9.1-3.4 39.9 1.2 17-3.5 5.7-2.2 2.9-6.9v-5.6l-4.6-3.5-14.2-1.1-20.5 4.6-6.8-2.9-1.7 9.7-12.5-9.7-3.4 2.3-8-4-1.7 2.8-7.4-2.8-5.7 5.7-4.6-12 4.6-9.6 7.4-2.3 1.7-4.6-5.1-6.8v-11.4l-8-16.5-0.6-26.7 2.9-4.6h8.5l4.6-5.1 11.9-1.1 2.3-13.7 20.5-12.5-2.9-10.2 6.3-5.2 6.8-2.2 4.6 3.4h6.2l-0.5 14.2 6.8 1.1-0.6 6.9 5.1 1.7 10.3 17.6 4 23.3 12.5 14.3 12.5 5.7 5.7 7.4 1.7-6.3 17.6-22.2 7.4-18.8 11.4-9.1 8.6 1.7 10.8-4.5 22.2-19.9 5.1 2.2 9.7-2.8 18.2-10.2 3.9-9.2 8.6-3.4 129.7-16.5 5.1 23.4-1.7 6.2 23.4-11.9 7.9-8 18.2 1.1 15.4-2.8 17.1 4.6 10.2-1.2 10.3-9.7 5.6-0.5 8 4.5 9.1-3.4 12-14.2z"/>
		<path id="BI-BM" class="s0" d="m935.3 2222.6l-4.5-19.9 3.4-5.1 8.5-2.3 10.3-22.7-1.7-6.3 3.4-12.5-4-16 6.8-9.1 0.6-5.6-10.3-18.8 2.3-25.1 1.7-3.4 5.1 1.2 5.2-8.6-2.9-12.5 5.7-8-0.6-12.5-15.9-21-7.4-2.3 5.7-3.4 1.1-9.7-5.6-8-15.4-5.1-4 2.3-4.5-6.8-29.6-9.7-35.3-3.4-5.7-4.6 10.8-1.7 43.8 6.3-4-13.1 3.5-1.1-10.9-66.6 22.2-3.4 14.3 38.7 22.7-29.6h7.4l23.3 5.7 16.5-1.7 24.5 7.9 22.8-4 46.1 13.1 15.9 10.3-1.7 4-9.1 3.9 1.7 6.9-17.6 8.5-9.7 15.4 3.4 33-9.1 30.7-4.6-1.1 6.9 17.6-5.7 4.5 4 6.3v13.1l-4.6-7.4-21-6.3-10.3 2.3-3.4 6.8v5.2l8.5 13.6-9.6 1.7 3.9 5.7-3.4 12 11.4-1.2 8.5 6.3 8.6 1.1-1.7 2.9-21.1 6.8-22.7-4.6-6.9 38.2 10.3 10.8-1.2 16.5-6.8 9.1 4 23.9 4.5 1.7-10.8 1.7-9.6-5.7-7.4 6.3-19.4 6.2-6.2-2.8-6.3 4.5-6.3-2.2-5.7 5.1z"/>
		<path id="BI-BR" class="s0" d="m1663.7 2539.6l23.3-1.2 15.4 5.7 13-1.7 13.7-16.5 13.1 2.9 2.8 8.5 8.6 9.7 17 9.1 4 10.8-7.4 13.1 0.6 10.8 6.2 4.5 1.2 4.6-7.4 14.2-4 21.6-1.1 29.1-8.6 34.1 2.3 10.8-3.4 15.4 1.7 9.1-14.2 17-4 30.2 2.3 10.8-12.5 20.5 2.2 13.1-7.9 14.2-3.5 13.7 2.3 7.4 7.4 2.8 9.1-3.4 19.9 6.8 4.6-1.1 4-5.7 7.9-1.1 15.4-19.4 5.1-12.5 19.4-17.1 10.8-23.9 8-9.7-4-9.6 4-3.4-4-2.9 1.1-6.2-4-2.3 10.3-5.7 10.8 0.6 6.2-6.9 6.3-36.4 14.8-25 3.4 1.1 5.7-3.4h2.8l0.6 14.2-4 18.8 10.8 6.8 16 4 10.2 9.7-5.1 18.2 4.5 7.4-0.5 6.3-10.3 11.3 3.4 9.1 3.5 2.9 14.2-2.9-0.6 19.4 48.4 15.9 23.9-1.1 3.4 3.4 4.5 19.9 19.4 4.6 2.8 8.5 0.6 4-11.9 2.8-6.9 14.8-30.1 19.4 10.8 13.6 7.4 4 1.1 3.4-7.4 8.6 8 4.5-0.6 7.4 9.1 24.5-34.1 5.7-7.4 17-1.7 39.3-4 14.8-9.7 2.8-13.1 17.7-5.1 30.1-10.2 23.4-2.9 1.7-5.7-1.7-2.2 10.2-10.3 10.8-3.4 12.5-5.1 1.2-5.7 10.8-4 26.2-14.8 8.5-2.8 10.8 4.5 17.1-1.7 6.8-7.4 7.4-9.1 18.2-11.9 9.7-2.9 6.2-18.2-15.9-14.2-33.6h-7.4l-1.2-6.2-6.2-4.6-17.1 8-24.4-19.9-3.5 13.1-5.7 3.4-5.6 12.5-13.1 4-9.1-4.6-10.8 62.6-4 10.8-12.5 12.5v4l-10.9-1.7-6.2-5.7-35.9 6.3-13.1 13.1-11.9 4-20.5-8.6-7.4 6.3-3.4 8.5h-11.4l-6.8 6.8-9.1 0.6-5.7 8-2.3 11.9-3.4 0.6v8.5l-5.1 2.9 0.6 3.4-14.3 20.5 1.2 2.8-10.3 8.6-9.6 23.3-9.1 8-6.3-1.8-1.7 5.2-4 1.1-3.4 12-14.2 3.4-15.4 15.9-18.8 1.1-11.9-4.5-2.3 2.3 1.7 3.9-6.3 4.6-17.6-2.8-13.1 6.2-1.7 4.6-22.7-9.7-18.3 12.5-12.5 5.1-6.8 16 1.7 14.2 3.4 2.3-5.1 15.3-34.7-21-18.2-25.1 2.3-16.5-3.5-25.6-24.4-50.6-2.3-17.1-6.8-9.1-3.4-17.1-7.4-10.8-16.5-14.2-8-23.9-17.1-8.5-8.5-39.3-13.1-14.2-15.4-33-9.6-9.1-21.7-8.6 2.3-7.9-2.8-14.2 5.1-6.3 1.1-10.2 3.4 0.5 8-15.9-1.1-10.3-7.4-11.9-9.1-6.8-10.8-1.2-12-7.9-1.7-4 3.4-5.7-10.8-23.9-2.3-20.5 2.9-9.1-14.8-19.9-3.4-21.6-2.9-4.6-14.8-6.8-5.1-17.1-12.5-18.2-8-19.9-4.5-3.4-3.4-9.7-9.7-4.5-6.3-9.2 3.4-10.2-5.1-6.8-1.1-9.7-5.1-3.4-3.5-16.5-6.8-6.8-12.5-5.7-4-10.8-0.6-4 4-5.1-1.1-12-5.1-13.7-6.9-7.3-2.8-23.4-15.4-18.2 7.4-8.5-4.5-22.2-4.6-6.8 1.7-5.2-8.5-9.1-1.1-6.8-11.4-6.3-1.7-5.1-12-4.5 12-0.6 26.1-8 18.3 0.6 11.9-4.5 8.5 2.8 52.4-8.5 10.2 5.7 22.8-5.7 19.3 4.5 9.1-1.7 2.9-5.1 1.7 7.4 6.8-1.2 5.1 6.3 4.6-6.8 8 1.1 3.9-3.4 1.2-8.5 6.2-6.9 9.7-5.6 5.7 1.7 6.8-6.3 4.6 1.1 2.8 11.4 10.3 3.4 1.7-2.8 16.5 2.3 6.8-6.9-1.1-3.4 8.5 1.7 7.4-13.1 7.4 11.4 8.5 1.2 3.4-6.3h9.7l3.4-4-2.2-6.2 3.9-9.7-9.1-7.4-3.4-10.8 7.4-17.7 5.7-2.2 1.1-5.2 14.3 1.7 5.1-3.4 4-11.9 5.7-4-1.7-8 6.2-10.2-1.7-26.8 7.4-12.5-0.6-14.2 5.2-13.1 21.6-27.3 4-25.6 22.2-21.6 7.4-2.9 1.7-5.7-3.5-15.3 17.1-15.4 8.6 1.2 8.5-4 5.7 8.5 14.8 0.6 19.9 8.5 5.7-4 4.5 1.7 2.9 13.1 6.2 2.9 4.6 8.5 23.9 13.7 1.7 36.4 26.7 33 9.7 4 6.3-1.2 11.3-9.7 5.2 0.6 5.1 5.1-8 10.8 5.7 9.2-0.6 14.2 4 5.7 6.9-0.6-1.7 5.7 4.5 7.4 13.7 1.1 11.3 6.9 11.4-1.2 9.7-5.7-5.7 33.6 2.8 9.7-6.8 8.5-5.1 1.1 5.7 18.8-17.7 26.8 9.7 29.6 22.2-9.2 19.4-16.5 6.8-1.1 10.8-11.9 6.8-18.8 9.7-9.7 4-17.6 5.1-4.6 0.6-12.5 4.5-1.7z"/>
		<path id="BI-CA" class="s0" d="m3383.2 1993.9l-21 8.5-8.6 8.6-15.3 1.7-14.8 6.8-18.2 11.4-3.5 8.5-27.3 19.9-3.4-2.8 5.7-13.7-2.8-4 2.2-13-3.9-4.6 1.7-3.4-37-13.1-17.7-34.7-33-8-19.3 5.7-1.7-14.2 2.8-25 23.9-17.1 13.7 2.3 4-4-20.5-6.3-1.7-4.5-14.3-5.7-2.8-9.1-14.8 2.8-1.7-4.5-13.1 4.5 1.2-5.7-11.4 0.6-9.1-6.3-8 5.7-7.4 19.4-4.5 3.4-19.4-1.2-8-8.5-16.5 0.6-4.5-17.1-18.8-21.6 4-3.4-15.4-12 7.4-26.2-1.7-14.2-20.5-7.9-15.9-30.2-22.8-9.1-12.5 2.8-4-6.2-7.4-1.7-10.2-15.4-19.3 14.8-1.8-8.5-22.7-19.4v9.7l-2.9 2.3-14.2-28.5-22.7 10.8-29.6-4.5-7.4 7.9-14.3 7.4-7.4-1.1-9.6-20.5 1.7-12.5 7.9-5.1-2.8-15.9 2.8-6.3 6.3-2.9-4-9.6 4.6-7.4 13.6-12.5h19.4l0.5-6.9-2.8-7.9 15.9-11.4 18.2 4.5 4 4 5.7-2.8 1.7-6.9-5.7-7.4 2.3-13.6-8.5-9.7h11.4l3.4-4.5-1.2-5.7 16.5-1.7 6.3-14.8 4.5 0.5 3.5-5.6-1.2-3.5-7.4-1.7 3.4-11.9 9.1 3.4 6.3-2.8-2.8-8-11.4-12-4-13.1-5.1-3.9 0.5-6.9 8.6-4.5-1.2-6.3 5.7-10.8 12-7.9 13.6-1.2 5.2-5.7h14.7l0.6-5.7-5.1-7.4 11.4-9.1 5.1 4 14.2-2.3 3.4-16.5-4.5-14.8 4-6.2-8-21.1 8.5-8.5 2.9-8 8.5 1.2-0.6-7.4 4-8-1.7-6.8 9.1-6.3 4.6 2.3 5.1-7.4 3.4 8 8-5.2 0.6-14.8-3.5-2.8 2.3-9.7 14.8 1.2 6.3 7.9 4.5 0.6 2.9-6.3 2.2 1.7 10.9-2.2 1.1-4.6 9.1-4 1.7-27.3 5.7-3.4 1.1-4 14.8-2.8-0.5-5.1-8.6-12 14.8-6.2-2.8-5.7 11.3-0.6 23.4 9.1 19.3-17.6 13.1-3.5 17.1-21 14.2 4 26.2-39.9 22.7-21.6-1.1-9.1 17.6-4 6.9 2.9 7.4 10.2 0.5 9.1 10.3 2.9 1.7 11.3 14.2 2.9 7.4 16.5 12-3.4 12.5 9.1 13.1 1.7 22.2 21 17.6 22.2 11.9 6.9-2.2 29 7.4 13.1 11.9 5.1 13.1 17.6 13.1 10.3 17.1-11.4 11.3-10.8 0.6-5.7 14.8-10.2 9.1 0.5 12-6.8 9.1 2.8 11.3 16-2.2 1.1 8.5 6.8 4.6-1.1 9.6 12.5 9.7-1.7 12.5 2.9 10.3 10.2 7.4 2.3 33-8.6 11.9 4 24.5-9.1 30.7-3.4 3.4-2.8 6.3 2.2 15.3-12.5 23.9-2.3 18.8-7.9h5.1l5.2 5.7 4.5-2.3 10.3 4-8.6 6.8-2.8 9.1-6.9 1.7-6.2 13.7 1.7 3.4-21.6 23.9-8 23.9-10.2 8.5 2.2 6.8-6.2 20.5-37 21.1 11.9 17.6 1.2 8.6 13.6 7.9 8.6 16.5 29.6 5.1 13 20-7.9 17v14.8l2.8 5.7-7.9 22.2 1.1 4.6-9.1 19.3-14.2 14.2 6.8 6.9 23.9-13.7 21.6 36.4 1.7 5.1-15.9 51.2 18.8 26.8-12.6 1.1-25.6 13.1-13-1.7-10.3 10.3-4 9.6 14.3 25.1v6.2l9.6 10.8 21.1 12 10.2 1.7-25 18.2-23.3 5.1-11.4 8-15.4 5.1-9.1 10.2-34.1 6.3-10.3 6.3-15.9 5.1-5.7 6.2-9.7 1.8-19.3-11.4-5.7-33-11.4-0.6-15.3 10.8v23.3l-12.6 15.4-4.5 13.1-12.5 4-13.1 10.2-9.1 0.6-32.5 13.6-20.4 5.7-13.7-1.7-10.8 16.5-1.2 7.4-22.7 22.2-1.7 6.8-17.7 11.4z"/>
		<path id="BI-CI" class="s0" d="m1115.1 949.8l6.3 6.8-2.9 2.8 1.2 6.9 8 2.2 11.9-4 18.8 27.9-2.3 21.6 9.7 12-4 8 3.4 17.6 7.4 14.8 12 11.9-5.2 11.4 2.3 9.7 5.7 1.1 8 9.7 2.2 23.3 9.7 6.9 11.4 19.3-13.1 13.7-2.8 28.4-6.3-3.4-2.3 2.3-3.4-4.6-21.6 5.7-15.9-5.1-6.9 2.3-15.9 10.2-18.8 4.6-2.3 9.6-7.4 9.1-5.6-0.5-6.3 5.7-9.7-0.6-1.1 10.8-3.4 4.6-6.3-5.7-9.7 2.3-2.8-6.9 1.7-5.7-5.1-2.2 1.7-10.3-6.3-7.4-23.9-2.3-16.5 9.1-6.8-1.7-4.6 9.7-14.2 6.8-13.1 48.4 0.6 6.8 8 12.6-5.7 4.5-1.7 5.7-6.3 4.5-4-3.4-6.8 2.9-8-5.7-27.3 18.2-11.9-2.3-4.6-6.2-7.4 2.2-4.5 5.7-7.4-2.2-8 2.8 0.6 19.3-13.1 18.3-13.7 6.2 2.3 32.4 5.7 6.3 10.8 22.8h-6.8l-5.7 19.3 6.8 39.8-13.6 7.4-11.4 0.6-7.4-3.4-9.1 9.1-13.1-5.7-17.6 1.7-8-1.7-12.5-9.7 13.6-2.2-3.4-9.1 9.1-3.5 1.7-7.9-8.5-10.8 4-3.5 4 3.5-4-7.4 7.4-10.8h-6.9l-0.5-5.2-10.3-5.1v-5.1l9.1-2.3-5.7-6.2 4.6-5.7-27.3-20.5 3.4-9.1-14.2-1.7-4.6-5.7 8-6.8 0.6-6.9-13.1 1.7-7.4-10.2-9.1 4.5-9.7-2.2-13.7 1.1-5.1-2.8-2.3 3.4-5.1-1.2-10.8-11.3-4.5-13.7-14.8 0.6-2.9-10.3 2.9-5.7-14.8-15.9-5.1 6.8-8 2.9-4.6-1.7-4-6.3 10.9-20.5-10.9-20.5 5.7-5.7-5.1-6.8 3.4-9.1-12.5-5.1-1.7-6.3-4 1.7-6.2-4.5 0.5-4.6-4.5-5.1-4 4.6-14.8-4.6-5.7-12.5-14.2-8-6.8-10.8-12 1.7-18.8-10.2-3.9-5.7h-4.6l-5.7 5.1-6.3-2.3-2.2-6.2h-6.3l-14.8-36.4 1.7-20.5 8-14.8-2.3-12-5.1-9.1-8 4-4.5-6.8-12-4-3.4-6.8-11.4 0.5-2.2-7.4 4.5-4.5-9.1-6.8 5.7-8.6-2.8-7.4-5.2 0.6-7.4-6.3 1.2-8.5-2.9-6.8-5.1-9.1-9.7-5.7-2.8-12-7.4-1.1-11.4 8-23.3 5.1-9.7-9.1-11.4 1.1-11.4-4.5-8.5-5.7-8-12.5-2.8-37.6 4-16.5 9.1-4.5 8.5-11.4 12.5-6.3 15.4-17.6 10.2-2.9 11.4 2.9 6.3-48.4-1.7-10.2 2.8-0.6-2.3-2.8 4.6-6.3 2.8 1.7 3.5-8 15.9-17.6-0.6-8.5-7.9-2.3-2.3-5.7 5.1-6.8-4-10.3 8.6-1.1-0.6-5.7-4.6 1.1-8.5-5.1 3.4-4.5 5.1 1.1 8-4 1.7-9.7-0.6-2.8-9.6 0.6-3.5-7.4-6.8-3.4 5.1-4.6-2.2-7.4 7.9-15.4h4.6v-7.9l5.1 0.5 7.4-5.1h-2.8l-0.6-7.4-10.3-10.2 1.2-14.2-4-14.8 1.7-10.8 9.7-3.5-0.6-12.5 7.4-16.5 19.9 2.9 16.5-16 12-5.7 10.2-1.1 6.8 9.7 23.4-4 7.4 5.1 6.2-0.6v4l7.4 3.4 3.4 5.7h4.6l1.1 7.4 5.7 4.6 13.1-10.3 8 1.7 3.4-2.8-4-9.7 10.8-7.9h6.3l0.5-5.2 4-1.1 2.9 8 3.4-2.3 4.5 4 13.1-2.9v9.1l11.4 5.7 1.1 8 5.2 1.1 4 5.2 0.5 9.6 14.2-3.4 2.3-5.1 6.8-2.3 4 6.8-5.1 4.6 21.1 3.4 11.3-4.5 10.3 13 7.4-2.2 5.7 7.9 6.2 1.7 1.7 10.9 4.6-0.6v-5.1l6.8-6.9 8 6.9 8.5-2.9 1.2-5.7 6.2 5.1 1.7-5.1 8-2.8 2.8 4 2.9-5.7 5.7 9.6 5.7-7.3 18.7-9.2h4.6l5.1 10.3 14.2-2.3 2.9 4.6 8.5 1.7 5.1 10.2 17.7 17.1 33.6 8 14.7 14.2 9.1-1.2 9.7 11.4-1.1 4 6.8 6.3v7.4l5.1 5.1-0.5 8.5-10.8 14.8-3.5 12.5 3.5 4 8.5-2.3 6.2 5.7 4.6 11.4 8.5 6.8 10.8-4 1.8 22.8-5.2 7.4-0.5 5.7 2.8 8 4.6 0.5-1.2 17.1 2.3 3.4-21.1 15.4-11.9 2.8-2.3 5.1 14.2 9.7-5.1 21.1 10.8 1.7 5.7 7.4 6.3-2.3-4.6 16.5 10.8 12 5.7 19.3-4.5 7.4-5.1 2.3 0.5 10.2 13.1 13.1 5.7 14.2-2.3 9.1 7.4 7.4-4.5 9.7 9.6-1.7 6.3 14.8 10.3-3.4-0.6-11.4 6.8-1.1 9.1-17.1 7.4-2.9 1.7-3.9 12-4 1.1 5.7 6.3 4.5 14.8-13.1 9.1-1.1 11.9-10.3z"/>
		<path id="BI-GI" class="s0" d="m2047.7 1479.5l-2.2 17.1-9.1 1.7-10.3 11.4-4 24.4 4.6 6.3-5.7 8-5.1-1.8-4 10.3 4 5.1-6.3 2.3-15.9 22.2 1.7 10.2 6.3 1.7-4 7.4 5.7 15.4-1.7 8.5 3.9 18.8 14.8 6.8 4-1.7 4 5.1 4.6-1.1 1.1 2.3 6.8-5.1 3.4 2.2 11.4-8.5-1.7-4.6 8.5-2.2 5.7-5.7 5.2-10.8 9.6 2.8-3.4-11.9 5.1-7.4 29 6.2 5.7 16 2.3-2.9-1.1 5.7 9.7 15.9 10.2 8.6 9.7 23.9 25 21 6.8-2.8-3.4 6.8 1.2 13.1 7.4 14.8 9.6-1.7 15.4 2.8 1.7 1.2-4.6 4.5 12.6 12 9.1 3.4-6.9 1.1-5.7 9.1 6.9 2.3 0.5 6.3 3.5-4 12.5 12.5-1.2 5.7-5.7 1.1v5.1l-5.6 0.6-0.6 3.4 1.7 5.1 7.4 2.3-2.3 16-3.4 2.8 4.6 7.4-5.7 13.1 6.8 10.8-2.9-1.7-22.7 16.5 1.1 7.4-15.9 11.4 0.6 7.4-4.6 1.1-4.5-5.7-1.2 12.5 4.6 16-6.9 10.2-0.5 12.5-2.9 5.7-7.4-1.1-3.4 19.3-11.4-4.5-7.4 11.9 6.3 12.5 16.5 6.3 1.1 8.5 15.4 4 1.7 6.3 9.1 7.9 0.6 4.6 4.5-0.6-1.1 21.1 6.8 6.2 17.1-3.9-0.6-8-5.7-0.6 1.2-2.3 15.9-13 25.6-12.6-0.6 6.3 8.6 0.6 0.5 5.1-3.4 2.3 3.4 1.7-1.1 9.1 5.1 2.8-1.7 7.4 17.7 9.7-1.7 12.5 3.4 8.5 5.7-0.5 1.7 6.8 6.2 2.8 1.7 5.7 25.1 17.7 2.8 12.5 3.4 1.1-5.1 8.6-4.5 0.5-11.4 11.4-9.7 21.1 1.7 5.7-5.1 13 2.3 4.6-9.1 5.1-6.3 10.8-2.8-1.7-2.9 3.4 22.8 33 3.4 17.7-1.7 8.5 7.4 11.4-3.4 4.5 1.7 2.9 11.4 8 13.6 16.5 2.9 11.9-9.2 5.7 3.5 0.6-2.9 13.1 5.1 9.1-0.5 6.2 6.2 6.8 1.7 8.6 17.7 20.5-4 13.6 6.8 12.5 6.8 1.2-2.2 6.8 6.2 1.7-1.7 22.2 2.9 8.5-12 16.5 1.2 4.6-4 5.1 2.3 17.1-2.3 2.8 2.8 5.1-12.5 18.8 2.3 32.5-22.8 11.3-9.1 22.2-9.1 6.3 0.6 7.4-7.4 2.8-2.9 13.1-11.9 9.1 1.7 4.6-4 6.8-15.4 2.9-6.8-4-11.4 5.1-15.3-0.6v5.7l-4 4-14.8 2.8-4.6 5.7-33 5.7-21 17.1-0.6 10.8-14.8 9.7-17.6 18.8 1.7 7.9 13.1 3.4 30.1 18.2-1.1 6.9-13.1 6.8h-14.8l-21.6 14.2-15.4 3.4-2.2 4-6.3-0.6-7.4 6.9-8.5-0.6-1.2 5.1-4 1.2-2.8 11.9 3.4 4-8 7.4-1.7 8-10.8 14.2 19.4 17.6-2.3 18.2 4.6 4.6-6.3 7.4h-6.8l-11.4-9.1-9.1 2.8-9.7-5.1-14.8-22.2 1.2-11.9-3.5-0.6-2.8-8.5-19.4-4.6-4.5-19.9-3.4-3.4-23.9 1.1-48.4-15.9 0.6-19.4-14.2 2.9-3.5-2.9-3.4-9.1 10.3-11.3 0.5-6.3-4.5-7.4 5.1-18.2-10.2-9.7-16-4-10.8-6.8 4-18.8-0.6-14.2h-2.8l-5.7 3.4-3.4-1.1-14.8 25-6.3 36.4-6.2 6.9-10.8-0.6-10.3 5.7 4 2.3-1.1 6.2 4 2.9-4 3.4 4 9.6-8 9.7-10.8 23.9-19.4 17.1-5.1 12.5-15.4 19.4-7.9 1.1-4 5.7-4.6 1.1-19.9-6.8-9.1 3.4-7.4-2.8-2.3-7.4 3.5-13.7 7.9-14.2-2.2-13.1 12.5-20.5-2.3-10.8 4-30.2 14.2-17-1.7-9.1 3.4-15.4-2.3-10.8 8.6-34.1 1.1-29.1 4-21.6 7.4-14.2-1.2-4.6-6.2-4.5-0.6-10.8 7.4-13.1-4-10.8-17-9.1-8.6-9.7-2.8-8.5-13.1-2.9-14.2 16.5-12.5 1.7-15.4-5.7-23.3 1.2-7.4-10.3 1.1-4.5 10.8-10.3 10.8-4.5 14.3-21.1 15.3-10.2 6.3 1.7 6.8-4.6 5.1 2.3 15.4-4 8.5 2.9 6.3-3.4 10.8 4.5 0.6-4 8.5-4 2.3 6.9 6.8-2.3 11.4 14.2 20.5 1.7 2.2-15.9-14.8-6.8-0.5-14.8-9.1-4-2.3-4.6 4-2.8-1.2-4h-2.2l-5.2-21h-3.9l-2.3-6.9 2.8-6.8-7.9-5.1-6.3-12.5-4.5-2.3-13.1-18.2 4.5-27.3 8.6-8.6h5.1l2.2-10.2 16 0.6v-5.7l5.7-4.6-1.2-4 6.3 1.7 1.7-2.8-2.3-3.4 5.1-2.3 4.6 4 10.2-8.5 33.6 12.5 0.6-3.4 9.1-5.7 9.1 2.2 4-3.4 10.2 1.2 0.6-9.1 15.9-10.3-2.3 0.6 6.3-12-0.6-14.2 3.4-13.1-2.2-5.1 1.1-12.5 10.2-0.6-4.5-5.7 3.4-5.1-7.4-1.7 1.2-7.4-4.6-5.1 9.7-8.5-2.3-12.6 2.8-0.5 0.6-7.4 9.7-2.3-10.3-6.8-0.5-2.3 7.9-1.7-7.4-6.3 7.4-5.7-13.6-11.9v-4.6l9.1-13.6-1.2-8 5.7-2.3-2.8-5.1 2.3-9.7 6.2-5.7 9.1 1.8 5.7-2.9 1.2 2.9 6.2-9.2-3.4-3.9-9.7-2.3 10.3-5.7-2.9-11.9-31.3-13.7 2.9-6.3-9.7-6.2-0.6-4-13.1-1.7-6.8 4.5-5.1-6.2h-12.5l-11.4-13.1 4-12 9.7-1.1 4.5-8-1.7-5.1 6.8-3.4-0.5-9.7 4.5-1.7-1.7-2.3 2.3-3.4-20.5-18.7 0.6-5.7-21.1-12.6-2.3-4.5 2.3-5.1-5.1-12.5-30.2 0.5-7.4-18.8-4.5-3.4-12.5 2.3-6.9-4-5.7-17.6 14.8-14.2-0.5-3.5 16.5-9.6 6.2-11.4 18.8-17.1 0.6-8.5 6.2-12.5 8-2.3 0.6-5.1 17-11.4 10.3 4.5 1.1-4.5 4 1.1 4.6-2.8 7.9 3.4 7.4-1.1 8-4 3.4-5.1-27.3-16.5-27.9-3.5-26.7-34.1 1.1-14.2 7.4-26.8 31.9-26.1 20.5-25.6 17-7.4 2.3-12-0.6-33.6-10.8 3.4-19.9-14.2-11.9-2.8-1.2-9.7-4.5-2.3-4.6-10.8v-17.1l14.2-8.5 30.2-39.8 11.4-6.3 6.8-11.4 12.5-2.2 33-4.6 15.4 7.4 4 5.7 17.6 1.1 14.2 17.7 9.1 21 14.8-4 3.4 4z"/>
		<path id="BI-KI" class="s0" d="m2888.7 108.8l4.6 60.3 17.6 31.8 1.2 16 12.5 11.9 10.2 41.6 24.5 22.7 12.5 24.5-2.8 26.7-31.9 31.3 4.6 27.3 33 32.5-17.1 25.6-2.9 10.8 1.8 10.2 5.6 12-8.5 35.3-12.5 27.3-7.4 7.4-14.2-1.2-24.5 3.4-21.1-3.4-11.9 3.4-21.1 26.2-6.2 21.6-5.7 9.1-6.8 4.6-16-4-12.5 5.1-16.5 31.9-16.5 11.4-5.7 10.8-19.9 17.1-22.7 35.8-15.4 4.6-13.7-28.5-26.1 4-37.6 15.4-18.8 15.9-6.8-2.3-48.4 47.8-17.6 11.4-17.6 18.8-18.8-6.3-12.5-11.9-13.1 2.2-11.4 30.8-22.2 23.3 0.6 15.3-21.7 27.9-17.6-1.7-17.6-15.9h-5.7l-37.6 23.3-17.1 2.3-11.9-2.3 2.8-17.1-7.4-8.5-5.6-14.8-9.1-3.4-4.6-7.4 7.4-12.5-1.7-4-6.3-7.4-15.9-4-34.7-26.7-22.8-13.1 2.3-4 11.4-3.4 6.2-11.9-23.9-30.8-2.8-5.1 2.3-4.5-18.8 6.2 0.6-17.6-5.2-5.7-19.9-8.6-18.2-2.8-5.1-9.7-15.4-10.8-28.4-10.2-29.6 4.5-4-6.2 8.6-25.6-2.3-5.7-8-3.4-3.4-6.3 4.5-19.3-1.7-26.8 2.9-36.4-3.4-14.2-8-7.4 1.7-4-9.1-18.2-1.1-15.4 7.4-8.5 2.2-9.7 6.3-4v-10.2l9.1-12.5 2.3-16-2.3-9.6 4.6-2.3 3.9-7.4-1.7-5.7 8.6-24.5 15.9-5.7 9.7-11.9 14.2-0.6 7.4-6.2 1.7-17.7-3.4-9.1 6.8-18.8-4.5-7.4 0.5-7.9-5.1-6.3 4-6.2-9.7-18.8-2.8-21.6 2.3-18.8-13.7-32.5-0.6-14.7-7.4-18.3-11.9-11.9-1.7-5.7 1.7-12.5 23.3-26.8-2.8-18.7 1.7-18.8 5.7-4 43.2 15.4 30.7 15.9 37-1.1 25.1 9.6 22.2 16.5 14.7 19.4 25.7 49.5 60.3 54 22.7 7.4 32.5 18.2 11.9 2.3 18.2-2.3 16-8.5h11.3l19.9-10.2 24.5 6.2 8.5-3.4 22.2-31.9 5.7-25.6-2.2-9.1 2.2-9.6 13.1-2.3 13.7-7.4 2.3-22.8 6.8-6.8 2.3-19.9 9.1-10.8 14.8 1.1 9.6 10.3 14.8 7.4 6.8 7.4 4 13.6 4.6 2.9 46.6 4.5 33.6-3.4z"/>
		<path id="BI-KR" class="s0" d="m2846.6 1604.7l-15.9 10.8 2.8 8.5-0.5 6.9h-19.4l-13.6 12.5-4.6 7.4 4 9.6-6.3 2.9-2.8 6.3-9.1-0.6-13.7 10.8-15.3-5.1-1.7 5.7 1.1 20.4-19.3 4.6-22.8 22.8-14.2 7.9-14.8 19.9-6.8 2.9-0.6 12.5-9.7 2.8-10.2 12 5.7 6.3-2.9 8.5h-4.5l-3.4 8-25.7 28.4 6.3 10.3 2.9 15.9-12.6 5.1-2.2-4-2.9 2.3-3.4-5.1-12.5-4.6-2.3 2.3 4 13.7v11.9l-9.1 5.1-2.3 5.1-3.4-5.1-9.1-2.2-6.3 7.9h-6.8l-11.4 10.8 4.6 10.3 0.5 10.8-2.8 1.7-8.5-3.4-1.2 3.4-18.8 2.8-5.6-2.8-3.5-12.5-17-1.2-1.7 8 6.2 5.1 6.3-1.1 1.7 6.2-4 2.9-18.8-2.9-2.8 5.2 4 8.5-1.7 4.5-14.3-10.2h-8.5l-2.3-2.8-2.3 6.2-18.2 10.3-3.4-0.6-2.8-7.4-5.1 1.7 1.1 8.5-6.3 7.4-21-15.9-9.7 4.6-11.4-2.9 6.3 5.7-6.8 12.5-5.2-5.1-13-3.4-11.4 7.4-9.1-2.3-12.5 9.7-27.9 2.8-1.7-5.7-5.2 0.6 2.3 4.6-4.5 10.2 1.1 10.2-8.5 2.9-12-5.7-2.3 14.8-6.8 2.8-25.6 12.6-15.4 13-1.7 2.3 5.7 0.6 0.6 8-17.1 3.9-6.8-6.2 1.1-21.1-4.5 0.6-0.6-4.6-9.1-7.9-1.7-6.3-14.8-4-1.7-8.5-16.5-6.3-6.3-12.5 7.4-11.9 11.4 4.5 3.4-19.3 7.4 1.1 2.9-5.7 0.5-12.5 6.9-10.2-4.6-16 1.2-12.5 4.5 5.7 4.6-1.1-0.6-7.4 15.9-11.4-1.1-7.4 22.7-16.5 2.9 1.7-6.8-10.8 5.7-13.1-4.6-7.4 3.4-2.8 2.3-16-7.4-2.3-1.7-5.1 1.1-3.4 5.1-0.6v-5.1l5.7-1.1 1.2-5.7-12.5-12.5-3.5 4-0.5-6.3-6.9-2.3 5.7-9.1 7.4-1.1-9.6-3.4-12.6-12 4.6-4.5-1.7-1.2-15.4-2.8-9.6 1.7-7.4-14.8-1.2-13.1 3.4-6.8-6.8 2.8-25-21-9.7-23.9-10.2-8.6-9.7-15.9 1.1-5.7-2.3 2.9-5.7-16-29-6.2-4.5 7.4 2.8 11.9-9.6-2.8-5.2 10.8-5.7 5.7-7.9 2.2 1.1 4.6-11.4 8.5-3.4-2.2-6.8 5.1-1.1-2.3-4.6 1.1-4-5.1-4 1.7-14.8-6.8-3.9-18.8 1.7-8.5-5.7-15.4 4-7.4-6.3-1.7-1.7-10.2 15.9-22.2 6.3-2.3-4-5.1 4-10.3 5.1 1.8 5.7-8-4.6-6.3 4-24.4 10.3-11.4 9.1-1.7 2.2-17.1 2.9 0.6 3.4-5.7 8-4 10.8-2.8 0.6-14.8-6.3-12.6 7.4-11.3 2.3 1.1 14.8-7.4 21 4 14.2-9.1 0.6-10.8 14.8-23.9 3.4-14.8 13.7-17.7 0.5-12.5 6.9-7.4 18.2-6.2 17.6-13.1 14.8-21.6 8.5-2.3 12.6 7.4 14.8 1.1 9.1-1.7 18.2-16.5 32.4 5.7 8.5-3.4 17.1 0.5 19.4-8.5 19.3-18.2 39.8-27.3 32.5-10.8 18.7-12.5 17.1-15.4 14.2-21.1 20.5-22.1 73.4-7.4 23.4 15.3 11.9 0.6 6.3 6.2 13.6 5.7 10.3 18.8 14.2 8.5 13.6 17.1 6.3 2.3 18.8 26.7 1.7 9.1-4.6 5.7-1.7 18.2 3.4 24.5-4.5 16.5 4.5 15.9-8.5 39.9 4.6 7.9-12.6 27.4v13.6l-21 22.8-2.9 9.6-14.8 21.1-1.1 12.5-17.6 17.7-13.7 27.3-1.1 6.2 4 9.7 14.2 10.2 1.1 14.3 9.1 8.5h5.7l1.2-2.3 8.5 3.4 6.3 4.6 9.6 17.1 15.4 1.1 4 5.1 15.3-2.3 23.4-14.7 15.3-5.2h10.8l14.8 7.4 0.6 13.1 10.2 5.1 7.4-0.5 16.5-13.7 6.9 0.6 7.4-5.7z"/>
		<path id="BI-KY" class="s0" d="m1564.7 924.7l-6.9 6.3-2.3-1.2-7.9 17.7 7.9 23.9-4.5 25-4 6.3-22.2-9.1-0.5 5.1-10.9 7.4-10.2 18.2-0.6 6.3 22.8 27.3 2.8 11.3 15.4-2.8 13.7 10.8 5.6-1.7 8 4 10.3-1.2 3.9 9.2h3.5l10.8-0.6 3.9-5.7 2.9 1.7 10.2-4v4l4.6 2.3 6.2-2.9-3.4 14.8 8 11.4h8l7.9 34.7-9.1 2.9-6.2 9.6-2.3 20.5 29.6 22.8 22.2-8 5.1-11.4 10.8-3.4 19.9-22.7-4 11.3 3.4 5.7 16 7.4-3.4 62 9.1 5.2 17 31.3 22.2 11.9 30.8 26.8 2.8 13-5.1 16 9.1 4 29-4 21.1-8 11.3-8 12.6 2.3 9.1 10.8 28.4-6.2 14.8-8 18.8-0.6-8 8.6-4.5 14.2-7.4 4-3.4 14.8 2.2 6.8-6.8 14.2 0.6 23.9-5.7 6.3 1.1 11.4-12.5 2.2-6.8 11.4-11.4 6.3-30.2 39.8-14.2 8.5v17.1l4.6 10.8 4.5 2.3 1.2 9.7 11.9 2.8 19.9 14.2 10.8-3.4 0.6 33.6-2.3 12-17 7.4-20.5 25.6-31.9 26.1-7.4 26.8-17.6-8.6-23.4 1.2-47.2 33-3.4 1.1-2.8-7.4-4.6 0.6-6.8 5.1-6.3 27.3-10.8 6.9-15.4 1.1-9.6-12.5-37-9.7-1.2-5.7-9.6-5.1-6.9-19.4-15.3-26.1-14.8-9.7-9.1-12.5-6.9-2.3-4.5-15.9 1.1-10.3 4.6-5.1-4.6-4-13.6 2.9-2.9 4.5-7.9-0.6-4 5.7-14.2 6.9-8-2.3-4 6.8-4-2.3-27.3 1.2-1.1-7.4-9.1-1.7-8.6-16-7.4-6.2-1.7-6.8-51.7-6.3-19.4-29.6-4-29-5.1 2.8-18.2-7.4h-14.2l-12.6-3.4 9.7-29.6-4.5-11.9 6.8-9.1v-10.8l-19.9-29 2.8-6.9-4-13.1-7.9-1.7-0.6-4.5-4-1.7 5.7-4.6 2.3-11.9-5.7-1.2-0.6-5.7-9.1-8.5 1.7-3.4-11.3-12v-9.1l-5.2-5.1-3.4-18.2-5.7-10.2 5.2-11.4-6.9-13.7v-8.5l-4-9.1-6.2-2.9-3.4-19.3-5.7-9.7 2.3-16.5-5.2-7.4 10.3-31.3-6.3-6.8-7.4-0.6-2.3-10.8-4.5-3.4-5.1-1.1-8 4-18.2-1.2-11.4-19.9-9.7-6.3-2.2-23.3-8-9.7-5.7-1.1-2.3-9.7 5.2-11.4-12-12.5-7.4-14.2-3.4-17.6 4-8-9.7-12 2.3-21.6-18.8-27.9-11.9 4-8-2.2-1.2-6.9 2.9-2.8-6.3-6.8 3.4-6.9 10.3-6.8 7.4 3.4 13.1-2.8 5.7 4.5 11.3 0.6v7.4l14.3 10.8 10.8-5.1 6.2 3.4 2.9-4 3.4 2.3 11.4-13.1 5.7 0.6 8.5 10.8 17.1 8.5 13.1 13.1 1.7 6.3 10.2 1.7 6.3 9.6 10.8 2.3 23.3-4.5 14.2 3.9-2.2-19.3 3.9-4 16 1.1 20.5-9.6 21-1.7 14.2-11.4 12-5.1h3.4l3.4 9.6 4-2.2 5.7 1.7 1.7-2.9 7.4 2.3 9.1-1.7 11.9 8.5 15.4-11.3 5.7 2.2 10.8-5.1 18.2-27.3 17.1-3.4 20.5 1.1z"/>
		<path id="BI-MA" class="s0" d="m1838.9 3267.3l6.3 4.6-2.9 5.1 3.4 10.3 11.4 3.9-2.3 6.3-12.5 8.5-5.7 21.1 8.6 1.1 4.5 4.6-2.2 7.9 20.4 4.6 9.7-5.7 2.9 2.8 15.3-0.5-6.2-5.1 1.1-2.3 8.5 3.4 2.9-7.4 4.5 0.6 5.7 7.9 9.7-7.9 11.9 1.1v-5.1l9.1-3.4 4 8.5-4 3.4 6.3 1.7-4.5 5.1 15.9 2.9-2.9 5.7 8.6 3.4-4 7.4 4.5 2.8 0.6-3.4 3.4 1.7 0.6 6.9 5.7 1.1-1.7-2.3 13.6-5.7 3.5 0.6-1.2 2.3 5.1-1.7 10.8-9.7 4 4-4 3.4 6.3 6.3-1.7 2.8 7.4 1.7-1.1-5.1 3.4-1.2-2.3-5.6 8.5 2.8 4-2.3-1.7-9.7 13.1-4.5 5.1 3.4 8-2.8 7.9 1.1 5.7-7.4 11.4 5.7-2.3 6.3 6.3 2.8 1.1 15.4 16-5.2 9.6 2.3 14.8-15.3 6.3-2.3 6.3 9.7h5.6l1.2-8.6 2.8-0.6 6.3 6.9 8-1.2 15.9-8.5 2.8-14.2 5.2 2.3 6.2-4 5.7 3.4 2.8-6.3 20.5-11.9-3.4-5.7 1.7-4 9.1-3.4 12 2.8 15.9-5.7 0.6-3.4 7.9 0.6-1.7 5.7 9.1 5.7 6.9-5.1 4.5 5.1 7.4-4.6 10.8 3.4 18.8-4.5 18.8 3.4 1.7 2.8 5.7-1.1 25 13.1 10.3-4 2.8 2.9 29.6-17.7 9.7-13.6 13.1-6.9 1.7-7.4 7.4-1.1 15.3-10.8 5.7 2.8 13.7-1.7 11.3 10.3 3.5 8.5 11.3 2.9 11.4 16.5 6.9-0.6 15.9-18.8 4 2.3 1.7 4-7.4 6.2 1.1 12-9.7 15.3 3.5 5.7-3.5 2.9 1.2 2.8-3.4 1.7-1.2 5.1-4 0.6-2.8 10.3 3.4-2.3 1.2 4.5-7.4 9.1-8.6 2.3-1.7 9.1-2.3-0.6-8.5 9.2-1.7 6.8-4.6 1.1 1.2 3.4-6.3 10.3-17.6 6.8-0.6 4.6-18.8 10.8-1.7 4.5-9.1 5.7-0.5 3.4-5.2-4-7.9 6.9-5.2-0.6 0.6 2.8-3.4 1.2 3.4 1.7-0.6 4-10.2 1.1-2.3-4.5-4 11.9h-3.4l-0.5 9.1-7.4 5.1-9.7-2.2-16.5 10.8-0.6 3.4-17 1.7-3.5 8.5-10.2 6.9-1.1 8.5-4.6-1.2 1.7 11.4-8.5 7.4 2.8 7.4-5.1 8.6 0.6 9.1-14.3 9.6-3.4 17.7-8.5 13.1 0.6 7.9-8 2.3 4.6 7.4-1.2 4 4 2.8-5.1 13.1 1.1 8-6.8 2.3-6.3-2.3-1.1 3.4 8.5 1.1-3.4 7.4 5.7 5.2 2.8 7.4-3.4 1.1 2.9 3.4-1.7 4.6-5.2 0.5-6.8-7.9-5.7 1.7 6.9 6.2-7.4 13.7 0.5 7.9-2.8 0.6 2.8 6.3-2.8 3.4-10.8 1.1-10.3-8.5v7.4l-9.1 3.4-2.3 4.6-2.2-8-6.9-1.7-8.5 3.4 1.1 9.1-5.1 4.6-14.2-8.6-4.6 0.6 1.2 5.7-4.6 4-1.1 18.7-4.6 6.9-5.1-0.6-2.8-11.4-5.1 8v9.1l-4-1.7-4.6-9.1-6.8 6.2-20.5 1.7-6.2 4.6-2.3 16.5-4.6 3.4-1.7 5.1 2.3 3.4-5.1 9.1-9.1 10.9-13.7 3.4-16.5 17-6.2-1.7-9.2 8h-11.3l-0.6 6.3-19.9 6.2-6.3-0.5-2.3 1.7 2.9 2.2-4.6 1.7-4.5-7.4-2.9 6.3-11.9 1.7 1.7 1.7-2.8 4.6-5.2-0.6-2.8-6.3-2.3 2.3-4-2.3-1.1 5.7-9.1 1.7-0.6 3.5-5.7 2.2 2.3 5.1-4 3.5 3.4 2.2-1.7 8-4 1.1-3.4-6.8-2.8 3.4-4.6-1.1 0.6 2.8-4.5 1.7-2.3-2.2-3.4 11.9 7.4 4.6-2.9 6.2-5.7-4 2.3 4.6-10.2 4.5-2.9-5.6-26.7 1.7-0.6-5.7-7.4-1.2-0.6-2.2 4-0.6-10.8-11.4 4-2.8-22.2-1.7-1.1-3.5-3.5 1.8v-5.2l-4.5 1.2-4-8-9.7 2.8 0.6 4.6-6.3 4-7.4-4.6-3.9 2.9v7.4l-18.8 25v6.8l-4 11.4-5.7 3.4-2.3 13.7-7.9 4-16 18.8-14.8-3.5-3.4 10.8-15.3 17.1-3.4 9.7 3.9 17.1-3.4 14.8 8 3.9 2.3 8-15.4 19.9-1.1-2.8-5.2 6.8-7.4 2.3-18.2-6.8-2.2-15.4-13.7-4.6-6.8 8-11.4 4-11.4-4.6-4.5-7.9-20 13.1-14.2-5.7-15.9-16.5-8 2.8-24.4-9.7-11.4 4.6-10.8-2.3 7.9-13.1-6.2-26.7 8.5-23.3-10.8-39.3-22.2-26.2-29.6-22.7-60.9-32.5-13.1-1.7-1.7-4 3.5-7.4-8-11.3-8.5-5.2 0.5-5.7-7.4-9.1 3.4-6.2-0.5-13.7-24.5-22.7-13.7-32.5-3.4-12.5 6.9-33-15.4-12.5-2.3-16.5-20.5-16.5 6.9-19.9-8.6-15.4 5.1-21-1.7-22.2-19.3-8.6 5.1-15.3-3.4-2.3-1.7-14.2 6.8-16 12.5-5.1 18.3-12.5 22.7 9.7 1.7-4.6 13.1-6.2 17.6 2.8 6.3-4.6-1.7-3.9 2.3-2.3 11.9 4.5 18.8-1.1 15.4-15.9 14.2-3.4 3.4-12 4-1.1 1.7-5.2 6.3 1.8 9.1-8 9.6-23.3 10.3-8.6-1.2-2.8 14.3-20.5-0.6-3.4 5.1-2.9v-8.5l3.4-0.6 2.3-11.9 5.7-8 9.1-0.6 6.8-6.8h11.4l3.4-8.5 7.4-6.3 20.5 8.6 11.9-3.5 13.1-13.6 35.9-6.3 6.2 5.7 10.9 1.7v-4l12.5-11.9 4.5-11.4 10.3-62.6 9.1 4.6 13.1-4 5.6-12.5 5.7-3.4 3.5-13.1 24.4 19.9 17.1-8 6.2 4.6 1.8 6.2h6.8l14.2 33.6z"/>
		<path id="BI-MU" class="s0" d="m1828.1 1683.8l-1.1 14.2 26.7 34.1 27.9 3.5 27.3 16.5-3.4 5.1-8 4-7.4 1.1-7.9-3.4-4.6 2.8-4-1.1-1.1 4.5-9.7-4.5-17.6 11.4-0.6 5.1-8 2.3-6.2 12.5-0.6 8.5-18.8 17.1-6.2 11.4-16.5 9.6 0.5 3.5-14.8 14.2 5.7 17.6-13 5.7-6.3 29.6 0.6 12 5.7 5.1-2.3 17.6-14.2 14.8 1.1 11.4-12 13.1 1.7 11.4-9.1 16.5-5.1 1.1-3.4-8-22.8-11.4-13.6-13-33.6 14.2-7.9 18.2 1.1 7.4-12.5 17.1-13.7 38.1-43.2 1.7-1.7 8.5-13.7 6.3-1.1 9.1-5.2 9.7-8.5 4.5-18.2-0.6-5.7-9.1-8.5-23.3 7.9-17.6-10.2-33.6-13.1 2.3-11.4-9.7v-6.8l-3.9-4-8.6 6.3-4-2.3-1.1-34.2-11.4-2.8-7.9 4.5-6.9-5.1-8.5 1.2-7.4-8-27.9-1.7-5.1 24.5 5.1 15.9-0.6 22.2-21.6 7.4-14.2 23.9h-5.7v-9.1l-5.1-6.9-5.1-25.6-6.3-15.9-10.2-13.1-22.8-18.2-6.8-15.4-14.3-7.4 6.3-17 10.8-6.8 6.3-10.9-1.2-4.5-14.2-19.9-6.2-33-9.7-12-6.8-0.5-11.4-12.6-0.6-11.3-9.7-14.3 13.1-0.5 8.6 3.4 3.4-1.7 11.9-22.8 5.7-5.1-4.5-2.3 0.5-17.6 3.4 0.5 5.2-6.2 6.8-21.1 16.5-19.9 3.4-26.2 14.2-21 4.6-21.1-1.7-7.4 8.5-7.4 7.4 1.7 4-7.4-5.7-9.6 3.4-4-2.8-4.6-25.6-19.9-2.3-7.4h-7.4l-10.8-13.6 4-3.4-3.5-14.8 18.8-17.1 6.8-15.4 12.6 3.4h14.2l18.2 7.4 5.1-2.8 4 29 19.4 29.6 51.7 6.3 1.7 6.8 7.4 6.2 8.6 16 9.1 1.7 1.1 7.4 27.3-1.2 4 2.3 4-6.8 8 2.3 14.2-6.9 4-5.1h7.9l2.9-4.5 13.6-2.9 4 4-4 5.1-1.1 10.3 4.5 15.9 6.9 2.3 9.1 12.5 14.8 9.7 15.3 26.1 6.9 19.4 9.6 5.1 1.2 5.7 37 9.7 9.6 12.5 15.4-1.1 10.8-6.9 6.3-27.3 6.8-5.1 4.6-0.6 2.8 7.4 3.4-1.1 47.2-33 23.4-1.2z"/>
		<path id="BI-MW" class="s0" d="m1663.7 2539.6l-8.6 21.6-4.5 1.7-0.6 12.5-5.1 4.6-4 17.6-9.7 9.7-6.8 18.8-10.8 11.9-6.8 1.1-19.4 16.5-22.2 9.2-9.7-29.6 17.7-26.8-5.7-18.8 5.1-1.1 6.8-8.5-2.8-9.7 5.7-33.6-9.7 5.7-11.4 1.2-11.3-6.9-13.7-1.1-5.1-7.4 2.3-5.7-6.9 0.6-4-5.7 0.6-14.2-5.7-9.2 8-10.8-5.1-5.1-5.2-0.6-11.3 9.7-6.3 1.2-9.7-4-26.7-33-1.7-36.4-23.9-13.7-4.6-8.5-6.2-2.9-2.9-13.1-4.5-1.7-5.7 4-19.9-8.5-14.8-0.6-5.7-8.5 4.5-8.6 4-0.5 3.4-8-1.1-5.7 4-5.1 18.8 5.7 5.7-4 3.9-33-19.9-5.7-0.5-14.2 3.9-5.1-1.1-18.3 2.8-1.1-1.1-22.2 6.3-12.5 25.6-18.2 1.7-6.8-1.7-16.5-23.4-21.1 2.3-6.3-4-9.6-7.9-4-4.6-6.8 2.9-5.7-1.2-8.6 6.8-15.9-4.5-11.4 6.3-6.8 7.9-25 7.4-8-2.3-7.4-16.5-12.5 0.6-22.8-5.1-15.3 5.1-24.5 27.9 1.7 7.4 8 8.5-1.2 6.9 5.1 7.9-4.5 11.4 2.8 1.1 34.2 4 2.3 8.6-6.3 3.9 4v6.8l11.4 9.7 13.1-2.9 10.2 34.2-7.9 17.6 8.5 23.3 5.7 9.1 18.2 0.6 8.5-4.5 5.2-9.7 1.1-9.1 13.7-6.3 1.7-8.5 43.2-1.7 13.7-38.1 12.5-17.1-1.1-7.4 7.9-18.2 33.6-14.2 13.6 13 22.8 11.4 3.4 8 5.1-1.1 9.1-16.5-1.7-11.4 12-13.1-1.1-11.4 14.2-14.8 2.3-17.6-5.7-5.1-0.6-12 6.3-29.6 13-5.7 6.9 4 12.5-2.3 4.5 3.4 7.4 18.8 30.2-0.5 5.1 12.5-2.3 5.1 2.3 4.5 21.1 12.6-0.6 5.7 20.5 18.7-2.3 3.4 1.7 2.3-4.5 1.7 0.5 9.7-6.8 3.4 1.7 5.1-4.5 8-9.7 1.1-4 12 11.4 13.1h12.5l5.1 6.2 6.8-4.5 13.1 1.7 0.6 4 9.7 6.2-2.9 6.3 31.3 13.7 2.9 11.9-10.3 5.7 9.7 2.3 3.4 3.9-6.2 9.2-1.2-2.9-5.7 2.9-8.5-1.8-6.8 5.7-2.3 9.7 2.8 5.1-5.7 2.3 1.2 8-9.1 13.6v4.6l13.6 11.9-7.4 5.7 7.4 6.3-7.9 1.7 0.5 2.3 10.3 6.8-9.7 2.3-0.6 7.4-2.8 0.5 2.3 12.6-9.7 8.5 4.6 5.1-1.2 7.4 7.4 1.7-3.4 5.1 4.5 5.7-10.2 0.6-1.1 12.5 2.2 5.1-3.4 13.1 0.6 14.2-5.7 12 1.7-0.6-15.9 10.3-0.6 9.1-9.7-1.2-4.5 3.4-8.5-2.2-9.7 5.7-0.6 3.4-33.6-12.5-10.2 8.5-4.6-4-5.1 2.3 2.3 3.4-1.7 2.8-6.3-1.7 1.2 4-5.7 4.6v5.7l-16-0.6-2.2 10.2h-5.1l-8.6 8.6-4.5 27.3 13.1 18.2 4.5 2.3 6.3 12.5 7.9 5.1-2.8 6.8 2.3 6.9h3.9l5.2 21h2.2l1.2 4-4 2.8 2.3 4.6 9.1 4 0.5 14.8 14.8 6.8-2.2 15.9-20.5-1.7-11.4-14.2-6.8 2.3-2.3-6.9-8.5 4-0.6 4-10.8-4.5-6.3 3.4-8.5-2.9-15.4 4-5.1-2.3-6.8 4.6-6.3-1.7-15.3 10.2-14.3 21.1-10.8 4.5-10.8 10.3-1.1 4.5z"/>
		<path id="BI-MY" class="s0" d="m3105 1219.5l2.8 5.7-14.8 6.2 8.6 12 0.5 5.1-14.8 2.8-1.1 4-5.7 3.4-1.7 27.3-9.1 4-1.1 4.6-10.9 2.2-2.2-1.7-2.9 6.3-4.5-0.6-6.3-7.9-14.8-1.2-2.3 9.7 3.5 2.8-0.6 14.8-8 5.2-3.4-8-5.1 7.4-4.6-2.3-9.1 6.3 1.7 6.8-4 8 0.6 7.4-8.5-1.2-2.9 8-8.5 8.5 8 21.1-4 6.2 4.5 14.8-3.4 16.5-14.2 2.3-5.1-4-11.4 9.1 5.1 7.4-0.6 5.7h-14.7l-5.2 5.7-13.6 1.2-12 7.9-5.7 10.8 1.2 6.3-8.6 4.5-0.5 6.9 5.1 3.9 4 13.1 11.4 12 2.8 8-6.3 2.8-9.1-3.4-3.4 11.9 7.4 1.7 1.2 3.5-3.5 5.6-4.5-0.5-6.3 14.8-16.5 1.7 1.2 5.7-3.4 4.5h-11.4l8.5 9.7-2.3 13.6 5.7 7.4-1.7 6.9-5.7 2.8-4-4-18.2-4.5-17-14.8-7.4 5.7-6.9-0.6-16.5 13.7-7.4 0.5-10.2-5.1-0.6-13.1-14.8-7.4h-10.8l-15.3 5.2-23.4 14.7-15.3 2.3-4-5.1-15.4-1.1-9.6-17.1-6.3-4.6-8.5-3.4-1.2 2.3h-5.7l-9.1-8.5-1.1-14.3-14.2-10.2-4-9.7 1.1-6.2 13.7-27.3 17.6-17.7 1.1-12.5 14.8-21.1 2.9-9.6 21-22.8v-13.6l12.6-27.4-4.6-7.9 8.5-39.9-4.5-15.9 4.5-16.5-3.4-24.5 1.7-18.2 4.6-5.7-1.7-9.1-18.8-26.7-6.3-2.3-13.6-17.1-14.2-8.5-10.3-18.8-13.6-5.7-6.3-6.2-11.9-0.6-23.4-15.3-73.4 7.4-5.1-10.3 8.5-13.6-6.2-6.9-0.6-6.8 3.4-5.1-6.2-8.6-8.6-3.9 4.6-6.9 24.4-11.9 6.3-13.1 10.3-1.7 1.1-2.9-8.5-9.1-12.6-7.4-28.4-5.6-25.6-14.8-11.4 12.5-18.8 12.5-2.3 8.5-35.2-31.8 8.5-4.6-1.7-5.7-2.9-4.5-9.6-2.9-3.4-14.8-12-4.5-5.1-5.1-1.1-8-5.2-5.1 6.9-12.5-1.7-3.5-44.4-26.7-4.6-9.7 37.6-23.3h5.7l17.6 15.9 17.6 1.7 21.7-27.9-0.6-15.3 22.2-23.3 11.4-30.8 13.1-2.2 12.5 11.9 18.8 6.3 17.6-18.8 17.6-11.4 49-47.8 6.2 2.3 18.8-15.9 37.6-15.4 26.1-4 13.7 28.5 15.4-4.6 22.7-35.8 19.9-17.1 5.7-10.8 16.5-11.4 16.5-31.9 12.5-5.1 16 4 6.8-4.6 5.7-9.1 6.2-21.6 21.1-26.2 11.9-3.4 21.1 3.4 24.5-3.4 14.2 1.2 7.4-7.4 12.5-27.3 8.5-35.3-5.6-12-1.8-10.2 2.9-10.8 17.1-25.6-33-32.5-4.6-27.3 31.9-31.3 2.8-26.7-12.5-24.5-24.5-22.7-10.2-41-12.5-12.5-1.2-16-17.6-31.8-4.6-60.3 2.3-12-2.3-6.3 8.6-13 5.1-22.8 13.7-12 7.9-13 23.9-2.3 10.8-4 23.9 25.6v4.6l8-2.3 6.8 6.8 14.3 2.3 9.6-14.2 16.5-7.4 13.7 0.5 7.4 4.6 2.3 8.5-8 16 3.4 9.6-4.6 10.3 2.9 5.1 19.3 8.5 1.2 12.5-2.9 8.6 3.4 6.2 10.3 3.5 9.1-4.6h7.4l9.1 21.6 8-0.5 10.2 14.2 15.9 9.1 3.5 20.5 19.3 7.4 26.2 1.1 15.9 15.9-10.8 17.7 2.8 6.2-5.1 15.4-10.8 8-2.3 10.2-9.6 7.4-1.2 9.1-6.2 11.4 1.7 13.6-2.9 16-7.9 6.8-16 50.6-20.5 24.5v9.7l-19.9 1.7-4.5 8.5 4.5 31.3-1.7 21.6-10.2 8-5.7 19.4-11.4 7.9-6.8 21.1-16.5 16.5-5.1 12.5-20.5 29.6-11.4 31.8-9.1 13.7-12 9.7-8.5 12.5-4.6 13.7 1.2 5.6 19.3 25.6 11.4-3.4 12 1.7 18.2 20.5 11.3 4.6 16.6-10.3 9.1-10.2 30.7-12 27.9-16.5 14.8-16.5 21.6-1.1 4-4 5.7 0.6-2.3 11.9 5.7 9.7-9.7 21.6 1.1 7.4-7.9 2.9 1.7 10.2-7.4 2.3-2.3 6.8-4-1.1-5.7 4.5-4-2.2-2.2 11.9-7.4-4-1.2 10.8-11.3 9.7v6.8l-12.6 5.7-13.6 14.3-13.1-13.1-5.7 1.1-5.7 6.3h-9.1l0.6 8.5-4-1.1 0.6 3.4-4-0.6 0.5 6.3 6.3 7.4-3.4 5.7h-4l-13.6 11.9-26.8 6.3 2.9 14.2-10.3 6.8 13.7 9.7 6.8 12.5-9.1 17.6 5.1 8-5.7 5.7 1.2 5.1-3.5 4.6 2.3 7.4-4.5 4.5-3.4 13.1-2.3 0.6-1.2-6.3-6.2 1.7 5.1 4-3.4 1.7 2.3 5.7-4.6 2.9-0.6 6.8-8.5-2.9-5.1 10.8 4.5 4.6-2.8 12-3.4 2.8 2.8 8-8.5 1.7 1.7 14.2-4.6-1.1-1.7 7.4h-7.4l-3.4 7.4 5.2 7.3-4.6-0.5-9.1 14.2 0.6 4.6 12.5-2.9v8.5l-6.3 1.8 4 7.9 4 1.2 2.3 7.9 15.3-9.6 17.1 10.2 1.7 5.1-3.4 6.8 5.7 6.9 1.7 15.3-3.4 5.7 5.7 5.7-2.9 8 9.7 2.8 3.4 8.6 3.4-2.3 5.1 2.8 2.3 7.4 3.4-4.5 10.8-2.9 9.7 10.3 2.3 9.1-12 4 5.7 4.5 6.9-4.5 8.5 4.5 9.1 14.2 10.8 5.2 4 17.6z"/>
		<path id="BI-NG" class="s0" d="m2332.8 909.9l4.6 9.7 44.4 26.7 1.7 3.5-6.9 12.5 5.2 5.1 1.1 8 5.1 5.1 12 4.5 3.4 14.8 9.6 2.9 2.9 4.5 1.7 5.7-8.5 4.6 35.2 31.8 2.3-8.5 18.8-12.5 11.4-12.5 25.6 14.8 28.4 6.2 12.6 6.8 8.5 9.1-1.1 2.9-10.3 1.7-6.3 13.7-24.4 11.3-4.6 6.9 8.6 3.9 6.2 8.6-3.4 5.1 0.6 6.8 6.2 6.9-8.5 13.6 5.1 10.3-20.5 22.1-14.2 21.1-17.1 15.4-18.7 12.5-32.5 10.8-39.8 27.3-19.3 18.2-19.4 8.5-17.1-0.5-8.5 3.4-32.4-5.7-18.2 16.5-9.1 1.7-14.8-1.1-12.6-7.4-8.5 2.3-14.8 21.6-17.6 13.1-18.2 6.2-6.9 7.4-0.5 12.5-13.7 17.7-3.4 14.8-14.8 23.9-0.6 10.8-14.2 9.1-21-4-14.8 7.4-2.3-1.1-7.4 11.3 6.3 12.6-0.6 14.8-10.8 2.8-8 4-3.4 5.7-2.9-0.6-7.4-0.6-3.4-4-14.8 4-9.1-20.5-14.2-18.2-17.6-1.1-4-5.7-15.4-7.4-33 5.1-1.1-11.9 5.7-6.3v-23.9l6.2-14.2-2.2-6.8 3.4-14.8 7.4-4 4.5-14.2 8-8.6-18.8 0.6-14.8 8-28.4 6.8-9.1-11.4-12.6-2.3-11.3 8-21.1 8-29 4-9.1-4 5.1-16-2.8-13-30.8-26.8-22.2-11.9-17-31.3-9.1-5.2 3.4-62-16-7.4-3.4-5.7 4-11.3-19.9 22.7-10.8 3.4-5.1 11.4-22.2 8-29.6-22.2 2.3-21.1 6.2-9.6 9.1-2.9-7.4-34.1-8.5-0.6-8-11.4 3.4-14.8-6.2 2.9-4.6-2.3v-4l-10.2 4-2.9-1.7-3.9 5.7-10.8 0.6h-3.5l-3.9-9.2-10.3 1.2-8-4-5.6 1.7-13.7-10.8-15.4 2.8-2.8-11.3-22.8-26.8 0.6-6.8 10.2-18.2 10.9-7.4 0.5-4.6 22.2 9.1 4-6.2 4.5-25.6-7.9-23.9 7.9-17.7 2.3 1.2 6.9-6.3 19.3 15.4 12.5 0.5 14.2 16 4-3.4 16 7.9 3.4 2.9-1.2 6.2 5.7 6.9 12.5-6.9 6.9 4 6.8-4.5 2.3 4.5 13.1-11.4 17-2.2 8.6-6.3h6.2l6.3 6.8 8-4 6.2-11.3-1.1-4 8.5-11.4 4-27.9 6.8-4.5-1.7-9.7 2.9-10.2 7.4-4.6 27.8 2.8 14.3-14.7 15.9 1.7 13.1 4.5 7.4 22.2 13.1 5.1 9.6-1.1 9.7 9.1 2.3-9.7 4-0.6 8.5-10.8 3.4 1.7 21.6-5.6 4-8 9.1 2.3 7.4-5.7 7.4-1.7 12.5 3.4 7.4-2.3 4-6.3-3.4-5.6 1.7-3.5 15.4-3.9 3.4 1.7 7.4-7.4-5.1-3.4 4-3.5 1.7-5.6-3.5-3.5 2.9-5.7 13.1-13 3.4-13.7 15.4-11.9 4.5-12 10.3-10.2 2.2-18.2 8-10.9 12.5-41.5-3.4-13.1 5.1-4.5 4 6.2 29.6-4.5 28.4 10.2 15.4 10.8 5.1 9.7 18.2 2.8 19.9 8.6 5.2 5.7-0.6 17.6 18.8-6.2-2.3 4.5 2.8 5.1 23.9 30.8-6.2 11.9-11.4 3.4-2.3 4 22.8 13.1 34.7 26.7 15.9 4 6.3 7.4 1.7 4-7.4 12.5 4.6 7.4 9.1 3.4 5.6 14.8 7.4 8.5-2.8 17.1 11.9 2.3z"/>
		<path id="BI-RT" class="s0" d="m2921.7 2673.9l1.8 6.2 14.2 5.7 2.3 12-3.5 2.8 6.3 8v5.7l6.8 11.9v15.9l9.1 5.2 2.3 4.5-3.4 13.7 2.8 0.5v19.4l-9.1 6.8-1.7 10.8-14.8 7.4-5.1-5.7 4-1.7v-5.1l-9.1 2.3-1.7-5.7-9.1-2.3-3.4-10.2 3.9-4.6-10.8-2.3v-3.9l-7.9-1.8-17.1-0.5-8.5 4-5.7 6.8-5.7-4 1.7-4.5-3.4-2.3-14.8-2.3-18.2 13.1-3.4-1.1-0.6 7.4-10.2 0.5 1.7 6.3-12.6 12.5 3.5 10.2-4.6 1.2 4.6 4-5.2 3.4 1.7 3.4-5.7 0.6-0.5 3.9 6.8 1.7-5.7 5.7 2.9 5.7-4.6-0.5-0.6 4.5-6.2 0.6 0.6 9.7-5.2-0.6 2.9 2.3-4.6 2.8 2.3 5.7-12.5 6.3 4.5 2.2 1.7 9.1-5.6 12.6-5.2 1.7-3.4 6.2-10.8 4v10.8l-12.5 9.7-3.4-4.6-1.2 5.2-9.6 6.2 1.1 4.6h-4.6l-6.2 6.2v4l-4-1.7-4.5 5.1-2.9-3.4-3.4 6.8-5.7-3.9-4 2.2-1.7 6.9-9.1-0.6 1.7 7.4-9.1-0.6 6.3 16-5.1 4.5 1.1 3.4-3.4 0.6-1.2 11.9-4.5 2.3 1.1 4.6-5.1 6.8-1.1 15.4-18.8 9.1 1.7 10.2-8 6.8 1.2 4-10.3 11.4 5.1 4-2.8 1.7v15.9l-6.8 1.7 2.2 18.8-2.8-1.1-2.3 11.3-3.4 3.5 2.9 1.7-1.2 5.1-13.1 20.5-11.3 10.2 8.5 17.6-1.2 4.6 4 4-1.7 2.3 6.9 2.2v4.6l13.6 2.3-3.4 4.5 1.7 3.4-2.8 5.2-6.9 0.5 2.3 5.7-4.5 9.1-10.9 3.4-3.4 15.4-13.1 9.1-6.2 9.7-3.4-1.2 2.2 4.6-15.9-2.9-10.2 10.3-4-2.3-15.9 18.8-6.9 0.6-11.4-16.5-11.3-2.9-3.5-8.5-11.3-10.3-13.7 1.7-5.7-2.8-15.3 10.8-7.4 1.1-1.7 7.4-13.1 6.9-9.7 13.6-29.6 17.7-2.8-2.9-10.3 4-25-13.1-5.7 1.1-1.7-2.8-18.8-3.4-18.8 4.5-10.8-3.4-7.4 4.6-4.5-4.6-6.9 4.6-9.1-5.7 1.7-5.7-7.9-0.6-0.6 3.4-15.9 5.7-12-2.8-9.1 3.4-1.7 4 3.4 5.7-20.5 11.9-2.8 6.3-5.7-3.4-6.2 4-5.2-2.3-2.8 14.2-15.9 8.5-8 1.2-6.3-6.9-2.8 0.6-1.7 8.6h-5.1l-6.3-9.7-6.3 2.3-14.8 15.3-9.6-2.3-16 5.2-1.1-15.4-6.3-2.8 2.3-6.3-11.4-5.7-5.7 7.4-7.9-1.1-8.6 2.8-4.5-3.4-13.1 4.5 1.7 9.7-4 2.3-8.5-2.8 2.3 5.6-3.4 1.2 1.1 5.1-7.4-1.7 1.7-2.3-6.3-6.8 4-3.4-4-4-10.8 9.7-5.1 1.7 1.2-2.3-3.5-0.6-13.6 5.7 1.7 2.3-5.7-1.1-0.6-6.9-3.4-1.7-0.6 3.4-4.5-2.8 4-7.4-8.6-3.4 2.9-5.7-15.9-2.3 4.5-5.7-6.3-1.7 4-3.4-4-8.5-9.1 3.4v5.1l-11.9-1.1-9.7 7.9-5.7-7.9-4.5-0.6-2.9 7.4-8.5-3.4-1.1 2.3 6.2 5.1-15.3 0.5-2.9-2.8-9.7 5.7-20.4-4.6 2.2-7.9-4.5-4.6-8.6-1.1 5.7-21.1 12.5-8.5 2.3-5.7-11.4-4.5-3.4-10.3 2.9-5.1-6.3-4.6 2.9-6.2 11.9-9.7 9.1-18.2 7.4-7.4 1.7-6.8-4.5-17.1 2.8-10.8 14.8-8.5 4-26.2 5.7-10.8 5.1-1.2 3.4-12.5 10.3-10.8 2.2-10.2 5.7 1.7 2.9-1.7 10.2-23.4 5.1-30.1 13.1-17.7 9.7-2.8 4-14.8 1.7-39.3 7.4-17 34.1-5.7-9.1-24.5 0.6-7.4-8-4.5 7.4-8.6-1.1-3.4-7.4-4-10.8-13.6 30.1-19.4 6.9-14.8 11.9-2.8-0.6-4 3.5 0.6-1.2 11.9 14.8 22.2 9.7 5.1 9.1-2.8 11.4 9.1h6.8l6.3-7.4-4.6-4.6 2.3-18.2-19.4-17.6 10.8-14.2 1.7-8 8-7.4-3.4-4 2.8-11.9 4-1.2 1.2-5.1 8.5 0.6 7.4-6.9 6.3 0.6 2.8-4 14.8-3.4 21.6-14.2h15.4l12.5-6.8 1.1-6.9-30.1-18.2-13.1-3.4-1.7-7.9 17.6-18.8 14.8-9.7 0.6-10.8 21-16.5 33-5.7 4.6-6.3 14.8-2.8 4-4v-5.7l15.3 0.6 11.4-5.1 6.8 4 15.4-2.9 4-6.8-1.7-4 11.9-9.7 2.9-13.1 7.4-2.8-0.6-7.4 9.1-6.3 9.1-22.2 22.8-11.3-2.3-32.5 12.5-18.8-2.8-5.1 2.3-2.8 7.9-1.7 24.5 17 11.4 1.8 32.4 37.5 9.1 3.4 9.7 21.1 15.3 14.2 5.7-3.4 12.5-17.1 9.7-4 25.1-20.5 40.9-17 19.4 3.4 22.2-4.6 22.2 5.2 11.9-1.7 21.1 18.7 5.1 18.2 19.3 17.7 16 23.9 3.9-1.2 9.1-11.9v-5.7l13.7-1.1 21.6 14.8 21.1 1.1 5.1 5.1 13.1 42.7 45.5 10.8 12 10.2 11.3-4.5 19.4-19.4 8.5 2.9 5.7 9.1z"/>
		<path id="BI-RY" class="s0" d="m2790.3 1669.6l2.3 15.9-7.4 5.1-1.7 12.5 9.1 20.5 7.9 1.1 14.3-7.4 7.4-7.9 29.6 4.5 22.7-10.8 14.2 28.5 2.9-2.3v-9.7l22.7 19.4 1.8 8.5 19.3-14.8 10.2 15.4 7.4 1.7 4 6.2 12.5-2.8 22.8 9.1 15.9 30.2 20.5 7.9 1.7 14.2-7.4 26.2 15.4 12-4 3.4 18.8 21.6 4.5 17.1 16.5-0.6 8 8.5 18.8 1.2 5.1-3.4 7.4-19.4 8-5.7 9.1 6.3 11.4-0.6-1.2 5.7 13.1-4.5 1.7 4.5 14.8-2.8 2.8 9.1 14.3 5.7 1.7 4.5 20.5 6.3-4 4-13.7-2.3-23.9 17.1-3.4 25 2.3 14.2 19.3-5.7 33 8 17.7 34.7 36.4 13.1-1.1 3.4 3.9 4.6-2.2 13 2.8 4-5.7 13.7 3.4 2.8 27.3-19.9 3.5-8.5 18.2-11.4 14.8-6.8 15.3-1.7 8.6-8.6 21-8.5 20.5 23.9 3.4 8.5-1.7 10.8h23.9l27.9 14.3 6.8 9.6-1.1 9.7-8 10.8 2.3 9.7-4.6 10.8-10.2 6.8-10.3 17.1-10.2 5.7-11.4 13.1-8.5 1.7-10.8 7.9-4 11.4-28.5 20.5-33 9.1-12.5 6.8-26.1 22.2-29.6 10.3-6.9 7.9-36.4 8.6-18.8 8.5-6.8 9.1-7.4 2.9-6.2 6.2-4 14.2-13.1 15.4-8 2.9-2.3-16.5-18.2-9.1-15.3 6.2-5.7 14.2-8 4-9.7 12-15.3 6.2-10.8 17.1-8.6 6.8 0.6 7.4-15.9 7.4-0.6 4-12.5 10.2 5.7 14.8 6.2 2.3v-5.1l7.4 2.3 1.7 6.2-3.4 4 3.4 4-4.5 3.4v8l-5.1-0.6-2.3 4.6 2.8 2.8 4-3.4 6.3 4-3.4 6.2 1.7 18.2-10.3 3.5 2.9 3.9-3.4 5.2-4 2.2-3.4-3.9 0.5 6.8-7.4 7.4-5.1 2.8-7.4-2.3-13.1 8.6 1.2 4.5 5.7 1.7-1.2 9.1-6.2 2.9 1.7 5.7-6.3 1.7 1.1 6.2-10.8-0.5-3.4 23.9-8.5 0.5v22.2l-10.3 1.7-3.9 7.4 6.8 7.4v4l-6.3 5.7-5.7-0.6 6.9 9.1-0.6 6.3-5.1-3.4-5.1 4.5 0.5 8.6-6.8 10.8 1.1 1.7-6.2 2.3 2.8 3.4-2.8 4-13.1 0.5 2.8 6.3-9.1 10.2 9.1 4v4l-5.7 3.4 1.7 8.6-17.6-6.3-5.7-9.1-8.5-2.9-19.4 19.4-11.3 4.5-12-10.2-45.5-10.8-13.1-42.7-5.1-5.1-21.1-1.1-21.6-14.8-13.7 1.1v5.7l-9.1 11.9-3.9 1.2-16.5-23.9-18.8-17.7-5.1-18.2-21.1-18.7-12.5 1.7-21.6-5.2-22.2 4.6-19.4-3.4-40.9 17-25.1 20.5-9.7 4-12.5 17.1-5.7 3.4-15.3-14.2-9.7-21.1-9.1-3.4-32.4-37.5-11.4-1.8-24.5-17-7.9 1.7-2.3-17.1 4-5.1-1.2-4.6 12-16.5-2.9-8.5 1.7-22.2-6.2-1.7 2.2-6.8-6.8-1.2-6.8-12.5 4-13.6-17.7-20-1.7-9.1-6.2-6.8 0.5-6.2-5.1-9.1 2.9-13.1-3.5-0.6 9.2-5.7-2.9-11.9-13.6-16.5-11.4-8-1.7-2.9 3.4-4.5-7.4-11.4 1.7-8.5-3.4-17.7-22.8-33 2.9-3.4 2.8 1.7 6.3-10.8 9.1-4.5-2.3-5.2 5.1-13-1.7-5.7 9.7-21.1 11.4-11.4 4.5-0.5 5.1-8.6-3.4-1.1-2.8-12.5-25.1-17.7-1.7-5.7-6.2-2.8-1.7-6.8-5.7 0.5-3.4-8.5 1.7-12.5-17.7-9.7 1.7-7.4-5.1-2.8 1.1-9.1-3.4-1.7 3.4-2.3-0.5-5.1h-8.6l0.6-6.9 6.8-2.8 2.3-14.8 11.4 5.7 8.5-2.9-0.5-10.2 4.5-10.2-2.3-4.6 5.2-0.6 1.7 5.7 27.9-2.8 11.9-9.7 9.7 2.3 11.4-7.4 13 3.4 5.2 5.1 6.8-12.5-6.3-5.7 11.4 2.9 9.7-4 21 15.3 6.3-7.4-1.1-8.5 5.1-1.7 2.8 7.4 3.4 0.6 18.2-10.3 2.3-6.2 2.3 2.8h8.5l14.3 10.2 1.7-4.5-4-8.5 2.8-5.2 18.8 2.9 3.4-2.9-1.1-6.2-6.3 1.1-6.2-5.1 1.1-8 17.6 1.2 3.5 12.5 5.6 3.4 18.8-3.4 1.2-3.4 8.5 3.4 2.8-1.7-0.5-10.8-4.6-10.3 11.4-10.8h6.8l6.3-7.9 9.1 2.2 3.4 5.1 2.3-5.1 9.1-5.1v-11.9l-4-13.7 2.3-2.3 12.5 4.6 3.4 5.1 2.9-2.3 2.2 4 12.6-5.1-2.9-15.9-6.8-10.3 26.2-28.4 3.4-8h4.5l2.9-8.5-5.7-6.3 10.2-12 9.7-2.8 0.6-12.5 6.8-2.9 14.8-19.9 14.2-7.9 22.8-22.8 19.3-4.6-1.7-20.4 2.3-5.7 14.8 5.1 14.2-10.8z"/>
</svg>